<?xml version="1.0" standalone="no"?>
<!DOCTYPE svg PUBLIC "-//W3C//DTD SVG 20010904//EN"
 "http://www.w3.org/TR/2001/REC-SVG-20010904/DTD/svg10.dtd">
<svg version="1.0" xmlns="http://www.w3.org/2000/svg"
 width="512.000000pt" height="512.000000pt" viewBox="0 0 512.000000 512.000000"
 preserveAspectRatio="xMidYMid meet">
<metadata>
Created by potrace 1.16, written by Peter Selinger 2001-2019
</metadata>
<g transform="translate(0.000000,512.000000) scale(0.100000,-0.100000)"
fill="#000000" stroke="none">
<path d="M1276 4942 c-15 -11 -37 -33 -47 -48 -18 -28 -19 -78 -19 -1582 0
-1462 1 -1556 18 -1584 32 -55 65 -66 223 -77 165 -11 266 -30 394 -72 213
-71 403 -205 538 -379 l27 -35 -3 1730 -2 1730 -80 57 c-235 170 -533 265
-860 275 -147 4 -162 3 -189 -15z"/>
<path d="M676 4641 c-15 -10 -37 -32 -47 -47 -18 -28 -19 -81 -19 -1734 0
-1653 1 -1706 19 -1734 10 -15 32 -37 47 -47 28 -18 60 -19 737 -19 l707 0
-16 26 c-28 42 -152 132 -240 175 -117 57 -250 88 -429 100 -82 5 -168 14
-190 20 -70 19 -137 60 -197 120 -73 72 -114 157 -128 260 -6 44 -10 638 -10
1487 l0 1412 -102 0 c-84 0 -108 -4 -132 -19z"/>
<path d="M2975 4640 c-73 -19 -176 -64 -232 -103 l-33 -22 1 -1805 c1 -993 4
-1791 8 -1775 11 45 32 74 71 98 l35 22 800 5 c882 6 823 1 866 67 18 27 19
91 19 1733 0 1653 -1 1706 -19 1734 -10 15 -32 37 -47 47 -28 18 -59 19 -714
18 -632 0 -690 -2 -755 -19z"/>
<path d="M66 4341 c-15 -10 -37 -32 -47 -47 -18 -28 -19 -84 -19 -1884 0
-1800 1 -1856 19 -1884 10 -15 32 -37 47 -47 28 -18 64 -19 895 -19 l867 0 28
-57 c38 -79 123 -162 209 -204 l70 -34 425 0 425 0 70 34 c85 42 168 123 210
203 l30 58 865 0 c831 0 866 1 894 19 15 10 37 32 47 47 18 28 19 84 19 1884
0 1800 -1 1856 -19 1884 -37 55 -66 66 -178 66 l-103 0 0 -1562 c0 -928 -4
-1593 -10 -1636 -26 -203 -192 -365 -400 -392 -41 -5 -380 -10 -752 -10 l-677
0 -32 -61 c-41 -75 -124 -153 -209 -193 -61 -29 -72 -31 -180 -31 -109 0 -119
2 -183 32 -84 40 -165 116 -206 193 l-32 60 -677 0 c-372 0 -711 5 -752 10
-208 27 -374 189 -400 392 -6 43 -10 708 -10 1636 l0 1562 -102 0 c-84 0 -108
-4 -132 -19z"/>
</g>
</svg>
