<?xml version="1.0" standalone="no"?>
<!DOCTYPE svg PUBLIC "-//W3C//DTD SVG 20010904//EN"
 "http://www.w3.org/TR/2001/REC-SVG-20010904/DTD/svg10.dtd">
<svg version="1.0" xmlns="http://www.w3.org/2000/svg"
 width="512.000000pt" height="512.000000pt" viewBox="0 0 512.000000 512.000000"
 preserveAspectRatio="xMidYMid meet">
<metadata>
Created by potrace 1.16, written by Peter Selinger 2001-2019
</metadata>
<g transform="translate(0.000000,512.000000) scale(0.100000,-0.100000)"
fill="#000000" stroke="none">
<path d="M168 4689 c-16 -6 -31 -22 -37 -40 -11 -32 -6 -54 17 -81 14 -17 52
-18 534 -18 505 0 519 1 538 20 25 25 26 71 1 101 l-19 24 -504 2 c-314 1
-513 -2 -530 -8z"/>
<path d="M1453 4686 c-42 -19 -54 -67 -26 -105 19 -25 25 -26 118 -29 120 -3
145 8 145 67 0 59 -25 75 -124 79 -54 1 -92 -3 -113 -12z"/>
<path d="M1513 4255 c-379 -69 -738 -379 -971 -839 -36 -72 -40 -76 -112 -113
-201 -103 -310 -309 -279 -528 14 -107 32 -148 96 -234 239 -318 584 -554
1002 -688 100 -31 217 -77 271 -104 201 -104 390 -265 588 -502 66 -79 153
-173 193 -210 236 -216 579 -370 934 -419 139 -19 430 -16 550 6 439 79 840
367 1103 791 103 167 120 219 99 301 -34 131 -166 214 -427 268 -334 70 -592
187 -804 365 -155 130 -161 141 -531 864 -135 263 -173 331 -193 338 -19 7
-54 2 -142 -21 -416 -108 -715 -69 -897 116 -110 112 -169 266 -182 473 -9
146 -14 151 -140 150 -47 0 -118 -7 -158 -14z m151 -207 c10 -110 42 -224 93
-328 39 -79 62 -110 132 -181 69 -68 103 -94 171 -127 204 -101 448 -117 760
-51 52 11 106 22 120 25 24 5 34 -13 254 -443 126 -246 243 -468 259 -493 17
-25 78 -92 136 -150 235 -234 533 -380 955 -465 149 -31 253 -81 293 -142 16
-25 16 -26 -8 -46 -94 -78 -448 -193 -854 -279 -147 -31 -453 -33 -585 -4
-206 44 -384 117 -546 224 -132 87 -216 163 -368 334 -186 210 -390 391 -618
545 -140 95 -262 164 -469 266 -183 90 -318 172 -434 265 -105 84 -229 197
-271 249 l-38 46 25 46 c190 360 470 639 735 732 67 23 174 47 220 48 l31 1 7
-72z m-1005 -991 c212 -206 378 -320 696 -477 110 -54 251 -130 313 -169 221
-138 456 -331 624 -513 275 -300 402 -410 598 -515 283 -153 651 -222 970
-182 192 23 482 92 706 167 l142 47 -29 -40 c-170 -237 -436 -443 -699 -542
-364 -138 -864 -97 -1264 103 -194 97 -318 200 -497 414 -286 341 -562 541
-874 631 -388 111 -731 333 -951 616 -92 116 -118 204 -94 319 15 74 31 105
83 162 40 43 121 102 140 102 6 0 67 -55 136 -123z"/>
<path d="M2930 3033 c-39 -15 -236 -128 -247 -141 -35 -43 0 -122 53 -122 32
0 259 124 279 153 20 28 19 60 -2 85 -19 23 -59 34 -83 25z"/>
<path d="M3048 2507 c-121 -66 -138 -81 -138 -123 0 -36 37 -74 73 -74 11 0
70 27 132 61 137 74 159 106 114 163 -31 39 -69 34 -181 -27z"/>
<path d="M182 1090 c-22 -9 -42 -46 -42 -76 0 -8 11 -26 25 -39 l24 -25 514 0
514 0 21 23 c29 31 28 72 -3 102 l-24 25 -503 -1 c-277 0 -513 -4 -526 -9z"/>
<path d="M1455 1075 c-30 -30 -32 -64 -4 -99 20 -25 24 -26 120 -26 114 0 139
13 139 74 0 58 -34 76 -142 76 -81 0 -91 -2 -113 -25z"/>
<path d="M580 550 c-27 -27 -26 -81 1 -106 20 -18 44 -19 534 -19 490 0 514 1
534 19 27 25 29 86 3 109 -17 15 -69 17 -535 17 -504 0 -518 -1 -537 -20z"/>
<path d="M1872 554 c-16 -11 -22 -25 -22 -53 0 -57 26 -75 115 -79 88 -5 138
9 154 44 16 35 14 47 -10 78 -20 25 -25 26 -118 26 -71 0 -102 -4 -119 -16z"/>
</g>
</svg>
