<svg height="512pt" preserveAspectRatio="xMidYMid meet" viewBox="0 0 512 512" width="512pt" xmlns="http://www.w3.org/2000/svg"><path d="m303 4340c-134-48-237-152-284-288-18-53-19-103-19-1492 0-1397 1-1438 19-1493 47-137 151-241 289-288 54-18 115-19 2252-19s2198 1 2252 19c138 47 242 151 289 288 18 55 19 96 19 1493s-1 1438-19 1493c-47 137-151 241-289 288-54 18-114 19-2256 18-2119 0-2203-1-2253-19zm3410-1160c-838-834-886-880-955-914-85-42-170-56-260-44-38 5-92 22-136 44-69 34-117 80-955 914l-882 879h2035 2035zm-2703-44 575-576-643-643-642-642v1279 1278l68-60c37-34 326-320 642-636zm3810-583v-1278l-642 643-643 642 636 635c350 349 639 635 642 635 4 0 7-575 7-1277zm-2910-319c247-249 400-326 650-326 135 0 230 22 338 76 89 45 158 100 299 239l112 110 98-91c54-50 343-336 643-636l545-546h-2035-2035l636 635c350 349 641 635 646 635 4 0 51-43 103-96z" transform="matrix(.1 0 0 -.1 0 512)"/></svg>