<?xml version="1.0" standalone="no"?>
<!DOCTYPE svg PUBLIC "-//W3C//DTD SVG 20010904//EN"
 "http://www.w3.org/TR/2001/REC-SVG-20010904/DTD/svg10.dtd">
<svg version="1.0" xmlns="http://www.w3.org/2000/svg"
 width="512.000000pt" height="512.000000pt" viewBox="0 0 512.000000 512.000000"
 preserveAspectRatio="xMidYMid meet">
<metadata>
Created by potrace 1.16, written by Peter Selinger 2001-2019
</metadata>
<g transform="translate(0.000000,512.000000) scale(0.100000,-0.100000)"
fill="#000000" stroke="none">
<path d="M665 5066 c-16 -8 -42 -26 -57 -42 -49 -53 -58 -90 -58 -249 l0 -145
-187 0 c-207 0 -239 -7 -297 -66 -52 -53 -66 -94 -66 -194 0 -104 15 -130 73
-130 56 0 70 18 78 105 6 60 13 83 30 101 22 24 26 24 196 24 l173 0 0 -1350
0 -1350 -200 0 -200 0 0 1119 0 1120 -26 20 c-34 27 -64 27 -98 0 l-26 -20 0
-1427 c0 -1426 0 -1426 21 -1469 11 -24 37 -57 57 -73 74 -61 50 -60 1014 -60
l878 0 0 -165 0 -165 -170 0 c-182 0 -203 -4 -247 -52 -45 -48 -53 -87 -53
-253 0 -166 8 -205 53 -253 50 -54 4 -52 1007 -52 1021 0 960 -4 1013 60 38
45 47 90 47 245 0 155 -9 200 -47 245 -46 55 -66 60 -253 60 l-170 0 0 165 0
165 611 2 611 3 19 24 c26 32 25 82 -4 109 l-23 22 -2068 0 c-2298 0 -2115 -6
-2135 68 -6 20 -11 119 -11 220 l0 182 954 0 954 0 4 -104 c2 -87 7 -109 24
-133 39 -53 39 -53 474 -53 435 0 435 0 474 53 17 24 22 46 24 133 l4 104 954
0 954 0 0 -182 c0 -285 -2 -288 -204 -288 -123 0 -125 0 -145 -26 -34 -43 -21
-102 26 -123 36 -16 250 -14 309 4 62 18 116 63 143 118 l21 43 0 1650 c0
1578 -1 1651 -19 1689 -23 51 -65 93 -116 116 -34 16 -67 19 -227 19 l-188 0
0 148 c0 134 -2 152 -22 192 -13 24 -40 58 -61 74 l-39 31 -1876 2 c-1553 2
-1882 0 -1907 -11z m3733 -158 c7 -7 12 -42 12 -85 l0 -73 -1850 0 -1850 0 0
73 c0 43 5 78 12 85 17 17 3659 17 3676 0z m12 -1728 l0 -1410 -1850 0 -1850
0 0 1410 0 1410 1850 0 1850 0 0 -1410z m531 1264 l24 -26 3 -1324 2 -1324
-200 0 -200 0 0 1350 0 1350 173 0 174 0 24 -26z m-2041 -2899 l0 -65 -340 0
-340 0 0 65 0 65 340 0 340 0 0 -65z m90 -730 l0 -165 -430 0 -430 0 0 165 0
165 430 0 430 0 0 -165z m465 -470 l0 -140 -895 0 -895 0 -3 129 c-1 72 0 136
2 143 4 11 170 13 898 11 l893 -3 0 -140z"/>
<path d="M977 4359 c-32 -18 -47 -65 -47 -142 0 -94 21 -127 79 -127 49 0 81
32 81 83 0 35 2 37 34 37 40 0 81 30 90 65 7 29 -15 79 -39 89 -27 10 -178 6
-198 -5z"/>
<path d="M1340 4350 c-31 -31 -27 -93 6 -119 24 -19 40 -21 179 -21 139 0 155
2 179 21 34 27 37 88 4 119 -20 18 -35 20 -185 20 -150 0 -165 -2 -183 -20z"/>
<path d="M1863 4355 c-44 -31 -37 -111 13 -134 15 -6 85 -11 175 -11 146 0
151 1 174 25 33 32 34 83 2 113 -22 21 -33 22 -183 22 -125 0 -164 -3 -181
-15z"/>
<path d="M2375 4345 c-30 -29 -32 -74 -6 -106 19 -24 23 -24 191 -24 168 0
172 0 191 24 26 32 24 77 -6 106 -24 24 -27 25 -185 25 -158 0 -161 -1 -185
-25z"/>
<path d="M2892 4347 c-30 -32 -29 -81 3 -112 23 -24 28 -25 174 -25 90 0 160
5 175 11 50 23 57 103 13 134 -17 12 -57 15 -182 15 -156 0 -162 -1 -183 -23z"/>
<path d="M3412 4350 c-33 -31 -30 -92 4 -119 24 -19 40 -21 179 -21 139 0 155
2 179 21 33 26 37 88 6 119 -18 18 -33 20 -183 20 -150 0 -165 -2 -185 -20z"/>
<path d="M3937 4358 c-64 -49 -24 -148 60 -148 32 0 33 -2 33 -38 0 -50 32
-82 82 -82 57 0 78 34 78 127 0 79 -16 125 -49 143 -28 14 -183 13 -204 -2z"/>
<path d="M974 3939 c-32 -16 -44 -52 -44 -134 0 -68 2 -77 29 -107 28 -32 33
-33 114 -36 77 -4 86 -2 112 21 22 19 29 33 29 62 0 48 -31 75 -85 75 -39 0
-39 0 -39 39 0 22 -7 48 -17 60 -21 25 -70 35 -99 20z"/>
<path d="M4073 3940 c-28 -12 -43 -40 -43 -84 0 -35 -1 -36 -39 -36 -54 0 -85
-27 -85 -75 0 -29 7 -43 29 -62 26 -23 35 -25 112 -21 81 3 86 4 114 36 27 30
29 39 29 107 0 84 -12 118 -47 134 -28 13 -40 13 -70 1z"/>
<path d="M1340 3800 c-31 -31 -27 -93 6 -119 24 -19 40 -21 179 -21 139 0 155
2 179 21 33 26 37 88 6 119 -18 18 -33 20 -185 20 -152 0 -167 -2 -185 -20z"/>
<path d="M1863 3805 c-46 -32 -36 -113 17 -135 18 -7 80 -10 180 -8 146 3 153
4 171 27 26 32 25 82 -4 109 -22 21 -33 22 -183 22 -125 0 -164 -3 -181 -15z"/>
<path d="M2371 3794 c-26 -33 -27 -75 -2 -105 19 -24 23 -24 191 -24 168 0
172 0 191 24 25 30 24 72 -2 105 l-20 26 -169 0 -169 0 -20 -26z"/>
<path d="M2892 3797 c-27 -29 -28 -77 -3 -108 18 -23 25 -24 171 -27 100 -2
162 1 180 8 53 22 63 103 17 135 -17 12 -57 15 -182 15 -156 0 -162 -1 -183
-23z"/>
<path d="M3410 3800 c-31 -31 -27 -93 6 -119 24 -19 40 -21 179 -21 139 0 155
2 179 21 33 26 37 88 6 119 -18 18 -33 20 -185 20 -152 0 -167 -2 -185 -20z"/>
<path d="M3273 3519 c-17 -5 -43 -23 -57 -40 l-26 -31 0 -688 0 -688 26 -31
c14 -17 42 -35 62 -41 54 -15 787 -12 832 3 19 7 44 27 57 46 l23 34 0 676 c0
652 -1 677 -20 708 -35 59 -30 58 -465 60 -228 1 -414 -2 -432 -8z m757 -759
l0 -610 -340 0 -340 0 0 610 0 610 340 0 340 0 0 -610z"/>
<path d="M3632 2937 c-14 -15 -22 -36 -22 -60 0 -35 -2 -37 -34 -37 -51 0 -86
-33 -86 -80 0 -47 35 -80 86 -80 33 0 34 -1 34 -38 0 -27 7 -45 23 -60 52 -49
137 -10 137 63 0 33 2 35 35 35 46 0 85 37 85 80 0 43 -39 80 -85 80 -33 0
-35 2 -35 35 0 74 -89 114 -138 62z"/>
<path d="M1603 3500 c-12 -5 -28 -22 -36 -37 -40 -79 -220 -551 -220 -577 0
-35 42 -76 78 -76 49 0 70 37 184 326 61 154 111 288 111 298 0 23 -54 76 -77
75 -10 0 -28 -4 -40 -9z"/>
<path d="M2276 3489 c-33 -26 -37 -88 -6 -119 19 -19 33 -20 374 -20 393 0
389 -1 402 67 5 27 1 37 -24 63 l-30 30 -345 0 c-333 0 -345 -1 -371 -21z"/>
<path d="M1108 3468 c-26 -20 -178 -278 -178 -302 0 -26 152 -296 177 -313 26
-20 80 -16 103 7 34 34 26 78 -35 184 -31 53 -58 103 -61 110 -3 8 22 59 55
114 69 111 78 156 39 192 -25 23 -76 27 -100 8z"/>
<path d="M1852 3457 c-36 -38 -28 -76 38 -185 33 -55 60 -103 60 -107 0 -5
-27 -56 -60 -115 -65 -116 -74 -156 -40 -190 21 -21 69 -26 99 -10 25 13 181
283 181 313 0 27 -141 273 -172 300 -29 25 -80 22 -106 -6z"/>
<path d="M2276 3219 c-34 -27 -37 -88 -4 -119 21 -19 33 -20 371 -20 204 0
356 4 366 10 10 5 24 23 31 40 15 35 0 84 -31 100 -10 6 -161 10 -362 10 -333
0 -345 -1 -371 -21z"/>
<path d="M2270 2950 c-31 -31 -27 -93 6 -119 26 -20 38 -21 365 -21 230 0 346
4 363 11 50 23 57 103 13 134 -18 13 -79 15 -374 15 -340 0 -354 -1 -373 -20z"/>
<path d="M955 2665 c-16 -15 -25 -36 -25 -55 0 -19 9 -40 25 -55 l24 -25 1006
0 c625 0 1013 4 1024 10 31 16 46 65 31 100 -7 17 -21 35 -31 40 -11 6 -399
10 -1024 10 l-1006 0 -24 -25z"/>
<path d="M974 2418 c-23 -11 -44 -48 -44 -77 0 -10 9 -30 21 -45 l20 -26 1014
0 c950 0 1014 1 1034 18 34 28 37 73 8 108 l-25 29 -1004 2 c-679 1 -1010 -2
-1024 -9z"/>
<path d="M955 2135 c-16 -15 -25 -36 -25 -55 0 -19 9 -40 25 -55 l24 -25 1008
0 c1100 0 1043 -3 1057 56 9 36 -9 79 -40 93 -18 8 -303 11 -1025 11 l-1000 0
-24 -25z"/>
</g>
</svg>
