<svg viewBox="0 0 500 500" xmlns="http://www.w3.org/2000/svg"><path d="m0 0h500v500h-500z" fill="none"/><path d="m470.49 422.14a8.79 8.79 0 0 1 -8.79 8.79h-423.4a8.79 8.79 0 0 1 -8.79-8.79 8.8 8.8 0 0 1 8.79-8.79h423.4a8.8 8.8 0 0 1 8.79 8.79z" fill="#fbaf28"/><rect fill="#d1ba32" height="6.34" rx="1.15" width="103.2" x="189.91" y="414.6"/><path d="m259.88 384.68h-36.74c0 16.69-25.1 30.76-25.1 30.76h86.96s-25.12-14.07-25.12-30.76z" fill="#406080"/><path d="m259.88 384.68h-26.88a79 79 0 0 0 30 30.76h22s-25.12-14.07-25.12-30.76z" fill="#d1ba32" opacity=".4"/><rect fill="#d1ba32" height="190.49" rx="2" width="311.98" x="85.52" y="194.19"/><rect fill="#f9e77d" height="169.49" rx="2" width="288.39" x="97.31" y="204.69"/><path d="m385.71 218.44v-11.75a2 2 0 0 0 -2-2h-284.4a2 2 0 0 0 -2 2v11.75z" fill="#c48062"/><circle cx="118.12" cy="211.57" fill="#fff" r="2.88"/><circle cx="106.12" cy="211.57" fill="#fff" r="2.88"/><circle cx="130.12" cy="211.57" fill="#fff" r="2.88"/><g fill="#285680"><path d="m119.08 229.09h244.86v49.35h-244.86z"/><path d="m119.08 286.44h103.16v32.88h-103.16z"/><path d="m119.08 326.59h103.16v4.85h-103.16z"/><path d="m119.08 336.59h103.16v4.85h-103.16z"/><path d="m119.08 346.59h103.16v4.85h-103.16z"/><path d="m119.08 356.59h103.16v4.85h-103.16z"/><path d="m231.51 286.44h51v55.01h-51z"/><path d="m230.93 346.59h51.5v4.85h-51.5z"/><path d="m230.93 356.59h51.5v4.85h-51.5z"/><path d="m293.11 286.44h70.83v32.88h-70.83z"/><path d="m293.11 326.59h69.59v4.85h-69.59z"/><path d="m293.11 336.59h69.59v4.85h-69.59z"/><path d="m293.11 346.59h69.59v4.85h-69.59z"/><path d="m293.11 356.59h69.59v4.85h-69.59z"/></g><path d="m397.5 382.68v-186.49a2 2 0 0 0 -2-2h-27.06c-8.29 148.48-158.6 190.49-158.6 190.49h185.66a2 2 0 0 0 2-2z" fill="#d1ba32" opacity=".1"/><path d="m111.58 323a2.9 2.9 0 0 0 -2.6 1.9l-3.81 12.15a2.88 2.88 0 0 1 -2.59 1.91h-41.67a1.62 1.62 0 0 0 -1.65 2l12.29 68a2.5 2.5 0 0 0 2.36 2h66a2.39 2.39 0 0 0 2.29-2l12.42-84a1.68 1.68 0 0 0 -1.71-2z" fill="#d1ba32"/><path d="m140.44 388.77h-67v-95h54.14l12.86 13z" fill="#fff"/><path d="m127.58 293.77 12.86 13h-12.86z" fill="#fdd794"/><path d="m79.6 318.94h54.67v1.57h-54.67z" fill="#01a4ca"/><path d="m79.6 325.22h54.67v1.57h-54.67z" fill="#01a4ca"/><path d="m79.6 331.51h54.67v1.57h-54.67z" fill="#01a4ca"/><path d="m79.6 337.8h54.67v1.57h-54.67z" fill="#01a4ca"/><path d="m79.6 344.09h54.67v1.57h-54.67z" fill="#01a4ca"/><path d="m79.6 350.37h54.67v1.57h-54.67z" fill="#01a4ca"/><path d="m88.84 308.28a5.25 5.25 0 0 1 5.58-5.28 5.36 5.36 0 0 1 4.36 1.92l-1.78 1.65a3 3 0 0 0 -2.39-1.19 2.9 2.9 0 0 0 0 5.8 3 3 0 0 0 2.39-1.18l1.82 1.65a5.36 5.36 0 0 1 -4.36 1.91 5.24 5.24 0 0 1 -5.62-5.28z" fill="#7b9fc0"/><path d="m110.76 313.35v-5.38l-2.6 4.38h-1.28l-2.59-4.23v5.23h-2.69v-10.14h2.4l3.56 5.85 3.48-5.85h2.36v10.14z" fill="#7b9fc0"/><path d="m116.26 312.44.95-2.12a6.31 6.31 0 0 0 3.34 1c1.19 0 1.66-.33 1.66-.83 0-1.6-5.77-.43-5.77-4.2 0-1.81 1.48-3.29 4.49-3.29a7.59 7.59 0 0 1 3.68.89l-.88 2.13a5.9 5.9 0 0 0 -2.81-.78c-1.21 0-1.64.4-1.64.91 0 1.55 5.75.39 5.75 4.13 0 1.76-1.48 3.27-4.49 3.27a8.07 8.07 0 0 1 -4.28-1.11z" fill="#7b9fc0"/><path d="m111.58 333a2.9 2.9 0 0 0 -2.6 1.9l-3.81 12.15a2.88 2.88 0 0 1 -2.59 1.91h-41.67a1.62 1.62 0 0 0 -1.65 2l12.29 68a2.5 2.5 0 0 0 2.36 2h66a2.39 2.39 0 0 0 2.29-2l12.42-84a1.68 1.68 0 0 0 -1.71-2z" fill="#406080"/><path d="m142.2 419 12.42-84a1.68 1.68 0 0 0 -1.71-2h-4c-6.71 63.83-55 79.62-77.78 83.53l.43 2.41a2.5 2.5 0 0 0 2.36 2h66a2.39 2.39 0 0 0 2.28-1.94z" fill="#d1ba32" opacity=".4"/><rect fill="#407380" height="91.2" rx="1.92" width="124.11" x="311.36" y="329.45"/><rect fill="#a5bdc3" height="77.32" rx="1.77" width="114.36" x="316.23" y="333.03"/><path d="m430.6 415.12a.68.68 0 0 1 -.68.67h-113a.68.68 0 0 1 -.68-.67.68.68 0 0 1 .68-.68h113a.68.68 0 0 1 .68.68z" fill="#406080"/><path d="m392.17 415.12a.68.68 0 0 1 -.68.67h-74.58a.68.68 0 0 1 -.68-.67.68.68 0 0 1 .68-.68h74.58a.68.68 0 0 1 .68.68z" fill="#7b9fc0"/><path d="m393.89 415.19a2.64 2.64 0 1 1 -2.64-2.64 2.65 2.65 0 0 1 2.64 2.64z" fill="#7b9fc0"/><path d="m403.84 372.77a30.43 30.43 0 1 1 -30.43-30.43 30.42 30.42 0 0 1 30.43 30.43z" fill="#f9e77d" opacity=".2"/><path d="m397.19 372.77a23.78 23.78 0 1 1 -23.78-23.77 23.77 23.77 0 0 1 23.78 23.77z" fill="#f9e77d"/><path d="m368.72 362.8v19.93l12.98-9.75z" fill="#406080"/><path d="m433.55 420.65a1.94 1.94 0 0 0 1.92-1.93v-87.35a1.93 1.93 0 0 0 -1.92-1.92h-11.27c0 60.49-31.18 83.31-48 91.2z" fill="#d1ba32" opacity=".2"/><rect fill="#fff" height="81.59" rx=".98" width="122.94" x="222.5" y="140.71"/><rect fill="#406080" height="72.05" rx=".9" width="113.99" x="226.97" y="145.48"/><path d="m316.14 170.12a6.08 6.08 0 0 0 -9.46 0l-32.11 37.15a6.08 6.08 0 0 1 -9.46 0l-14.61-16.9a6.09 6.09 0 0 0 -9.45 0l-14.05 16.28v10.93a.9.9 0 0 0 .9.89h112.2a.9.9 0 0 0 .9-.89v-18.73z" fill="#f9e77d"/><path d="m278.91 167a11.83 11.83 0 1 1 -11.83-11.83 11.83 11.83 0 0 1 11.83 11.83z" fill="#f9e77d"/><path d="m344.46 222.3a1 1 0 0 0 1-1v-79.61a1 1 0 0 0 -1-1h-14.34c-2.59 47.81-22 70.7-38.61 81.59z" fill="#d1ba32" opacity=".1"/><rect fill="#d1ba32" height="60.26" rx="1.07" width="83.58" x="156.64" y="240.09"/><path d="m240.22 247.41v-6.25a1.07 1.07 0 0 0 -1.06-1.07h-81.45a1.07 1.07 0 0 0 -1.07 1.07v6.25z" fill="#406080"/><path d="m169.26 243.75a1.54 1.54 0 1 1 -1.54-1.53 1.54 1.54 0 0 1 1.54 1.53z" fill="#fff"/><path d="m162.87 243.75a1.54 1.54 0 1 1 -1.54-1.53 1.54 1.54 0 0 1 1.54 1.53z" fill="#fff"/><path d="m175.65 243.75a1.54 1.54 0 1 1 -1.53-1.53 1.54 1.54 0 0 1 1.53 1.53z" fill="#fff"/><path d="m180.32 262.02h53.93v2.17h-53.93z" fill="#fff"/><path d="m162.61 255.02h15.99v2.17h-15.99z" fill="#285680"/><path d="m162.61 269.02h8.46v2.17h-8.46z" fill="#285680"/><path d="m162.61 276.02h15.99v2.17h-15.99z" fill="#285680"/><path d="m162.61 283.02h12.44v2.17h-12.44z" fill="#285680"/><path d="m187.75 255.02h31.05v2.17h-31.05z" fill="#fff"/><path d="m162.61 262.02h12.44v2.17h-12.44z" fill="#285680"/><path d="m174.66 269.02h36.69v2.17h-36.69z" fill="#fff"/><path d="m187.75 276.02h31.05v2.17h-31.05z" fill="#fff"/><path d="m180.32 283.02h53.93v2.17h-53.93z" fill="#fff"/><path d="m162.61 290.02h8.46v2.17h-8.46z" fill="#285680"/><path d="m174.66 290.02h36.69v2.17h-36.69z" fill="#fff"/><path d="m240.22 241.16a1.07 1.07 0 0 0 -1.06-1.07h-20c-.48 37.27-26 54.37-37.74 60.26h57.73a1.07 1.07 0 0 0 1.06-1.06z" fill="#d1ba32" opacity=".4"/><rect fill="#d1ba32" height="40.26" rx="1.07" width="73.58" x="297.5" y="208.96"/><path d="m371.08 216.28v-6.28a1.07 1.07 0 0 0 -1.08-1h-71.43a1.07 1.07 0 0 0 -1.07 1v6.25z" fill="#406080"/><path d="m310.12 212.62a1.54 1.54 0 1 1 -1.53-1.53 1.54 1.54 0 0 1 1.53 1.53z" fill="#fff"/><path d="m303.73 212.62a1.54 1.54 0 1 1 -1.53-1.53 1.54 1.54 0 0 1 1.53 1.53z" fill="#fff"/><path d="m316.51 212.62a1.54 1.54 0 1 1 -1.53-1.53 1.54 1.54 0 0 1 1.53 1.53z" fill="#fff"/><path d="m336 224.18q-2.52 7.6-5 15.22c-.33 1 1.25 1.43 1.58.43q2.52-7.61 5-15.21c.33-1-1.25-1.43-1.58-.44z" fill="#285680"/><path d="m330 234.87q-2.07-1.44-4.16-2.86l4.16-2.86c.87-.59.05-2-.83-1.41l-5.17 3.56a.83.83 0 0 0 0 1.42l5.18 3.56c.82.6 1.65-.82.82-1.41z" fill="#285680"/><path d="m338.63 234.87 4.15-2.86-4.15-2.86c-.87-.59-.05-2 .82-1.41l5.19 3.56a.83.83 0 0 1 0 1.42l-5.19 3.56c-.87.6-1.69-.82-.82-1.41z" fill="#285680"/><path d="m370 249.22a1.07 1.07 0 0 0 1.06-1.07v-38.15a1.07 1.07 0 0 0 -1.06-1h-16c-1.21 23.66-14.71 35-25.82 40.26z" fill="#d1ba32" opacity=".4"/><path d="m407.16 314.4-1.1 2.68-17.24-7.08a28.74 28.74 0 1 0 -1.26 3.07l17.24 7.09-1.1 2.67 17 7 3.46-8.43zm-23-4.52a24.31 24.31 0 1 1 -13.25-31.73 24.33 24.33 0 0 1 13.26 31.73z" fill="#fff"/><path d="m353.86 283.16a5.33 5.33 0 1 0 7 2.86 5.33 5.33 0 0 0 -7-2.86z" fill="#fff"/><path d="m449.61 199.64h-4a19.73 19.73 0 0 0 -3.72-9l2.82-2.81a1 1 0 0 0 0-1.41l-2.64-2.65a1 1 0 0 0 -1.42 0l-2.81 2.82a19.72 19.72 0 0 0 -9-3.71v-4a1 1 0 0 0 -1-1h-3.73a1 1 0 0 0 -1 1v4a19.72 19.72 0 0 0 -9 3.71l-2.82-2.82a1 1 0 0 0 -1.41 0l-2.64 2.65a1 1 0 0 0 0 1.41l2.81 2.81a19.72 19.72 0 0 0 -3.71 9h-4a1 1 0 0 0 -1 1v3.74a1 1 0 0 0 1 1h4a19.68 19.68 0 0 0 3.71 9l-2.81 2.82a1 1 0 0 0 0 1.41l2.64 2.64a1 1 0 0 0 1.41 0l2.82-2.81a19.68 19.68 0 0 0 9 3.71v4a1 1 0 0 0 1 1h3.73a1 1 0 0 0 1-1v-4a19.72 19.72 0 0 0 9-3.71l2.81 2.81a1 1 0 0 0 1.42 0l2.64-2.64a1 1 0 0 0 0-1.41l-2.82-2.82a19.7 19.7 0 0 0 3.72-9h4a1 1 0 0 0 1-1v-3.74a1 1 0 0 0 -1-1zm-23.61 17.36a14.5 14.5 0 1 1 14.5-14.5 14.5 14.5 0 0 1 -14.5 14.5z" fill="#7b9fc0"/><path d="m409.68 161.13h-3.15a15.63 15.63 0 0 0 -2.95-7.11l2.23-2.23a.8.8 0 0 0 0-1.13l-2.09-2.09a.79.79 0 0 0 -1.12 0l-2.23 2.23a15.67 15.67 0 0 0 -7.11-2.94v-3.16a.8.8 0 0 0 -.8-.79h-3a.8.8 0 0 0 -.79.79v3.16a15.67 15.67 0 0 0 -7.11 2.94l-2.23-2.23a.79.79 0 0 0 -1.12 0l-2.1 2.09a.8.8 0 0 0 0 1.13l2.24 2.23a15.53 15.53 0 0 0 -2.95 7.11h-3.16a.8.8 0 0 0 -.79.79v3a.79.79 0 0 0 .79.79h3.16a15.53 15.53 0 0 0 2.95 7.11l-2.2 2.18a.79.79 0 0 0 0 1.12l2.1 2.09a.79.79 0 0 0 1.12 0l2.23-2.21a15.51 15.51 0 0 0 7.11 2.94v3.16a.79.79 0 0 0 .79.79h3a.79.79 0 0 0 .8-.79v-3.16a15.56 15.56 0 0 0 7.11-2.94l2.23 2.23a.79.79 0 0 0 1.12 0l2.09-2.09a.79.79 0 0 0 0-1.12l-2.23-2.23a15.67 15.67 0 0 0 2.95-7.12h3.15a.79.79 0 0 0 .8-.79v-3a.8.8 0 0 0 -.84-.75zm-18.68 10.15a7.88 7.88 0 1 1 7.88-7.88 7.88 7.88 0 0 1 -7.88 7.88z" fill="#7b9fc0"/><path d="m185.28 418.4a4.18 4.18 0 0 1 -4.19 4.29h-2.09a4.19 4.19 0 0 1 -4.19-4.29l1.52-65.24c.05-2.36 1.73-4.29 3.73-4.29s3.67 1.93 3.72 4.29z" fill="#7b9fc0"/><path d="m179 422.69h2.11a4.13 4.13 0 0 0 2.07-.56l-.72-30.91a2.43 2.43 0 1 0 -4.81 0l-.72 30.91a4.19 4.19 0 0 0 2.07.56z" fill="#5885af"/><path d="m188.86 325.67v12l-8.86 8.74-8.83-8.71v-12a19.18 19.18 0 1 0 17.65 0z" fill="#7b9fc0"/><path d="m180 358.14a23.39 23.39 0 0 1 -17.7-8.06 19.18 19.18 0 0 0 35.39 0 23.39 23.39 0 0 1 -17.69 8.06z" fill="#5885af"/><rect fill="#7b9fc0" height="46.15" rx="2.74" width="82.86" x="115.89" y="148.43"/><path d="m196 148.43h-77.37a2.63 2.63 0 0 0 -1.09.23l37.24 27a4.62 4.62 0 0 0 5.07 0l37.24-27a2.62 2.62 0 0 0 -1.09-.23z" fill="#5885af"/><path d="m196 148.43h-14c-3.44 28.68-25.91 40.94-42.91 46.14h56.91a2.75 2.75 0 0 0 2.74-2.74v-40.66a2.75 2.75 0 0 0 -2.74-2.74z" fill="#d1ba32" opacity=".1"/><path d="m159.29 110.63c-7.44 15.33-24.06 18.74-24.06 18.74 3.19 27.27 24.06 32.95 24.06 32.95s20.86-5.68 24.05-32.95c0 0-16.62-3.37-24.05-18.74z" fill="#f9e77d"/><path d="m159.29 122.79c-4.53 9.35-14.67 11.42-14.67 11.42 1.95 16.62 14.67 20.08 14.67 20.08s12.71-3.46 14.71-20.08c0 0-10.18-2.07-14.71-11.42z" fill="#285680"/><path d="m165.68 134.23-6.61 8.19-4.24-3.22c-1.33-1-2.62 1.24-1.31 2.23l5.11 3.89a1.27 1.27 0 0 0 1.57-.21l7.31-9.05c1.04-1.29-.78-3.13-1.83-1.83z" fill="#d1ba32"/><path d="m145.48 153.19a32.61 32.61 0 0 0 13.81 9.13s20.86-5.68 24.05-32.95a38.2 38.2 0 0 1 -11-4.65c-4.71 16.93-18.53 25.03-26.86 28.47z" fill="#d1ba32" opacity=".1"/><path d="m93.43 234.13a13.6 13.6 0 0 0 -4.25.67 19 19 0 0 0 -37.5 4.63 21 21 0 0 0 .13 2.26 10.64 10.64 0 0 0 -2.05-.2 10.28 10.28 0 0 0 0 20.56h43.67a14 14 0 0 0 0-27.92z" fill="#fff"/><path d="m100.55 236.1a13.93 13.93 0 0 1 -12.57 20h-43.67a10.15 10.15 0 0 1 -4.24-.93 10.27 10.27 0 0 0 9.69 6.89h43.67a13.95 13.95 0 0 0 7.12-26z" fill="#d1ba32" opacity=".2"/><path d="m84.19 244.13-4.34-5.54-4.35 5.54h2.65v4.37h3.4v-4.37z" fill="#f9e77d"/><path d="m60.68 243.82 4.35 5.54 4.34-5.54h-2.64v-4.37h-3.4v4.37z" fill="#f9e77d"/><path d="m346.8 127.79a13.3 13.3 0 0 0 -4 .62 18 18 0 0 0 -35.37 4.38 18.74 18.74 0 0 0 .13 2.13 9.43 9.43 0 0 0 -1.93-.2 9.7 9.7 0 1 0 0 19.39h41.17a13.16 13.16 0 0 0 0-26.32z" fill="#fff"/><path d="m353.52 129.64a13.15 13.15 0 0 1 -11.87 18.85h-41.18a9.7 9.7 0 0 1 -4-.87 9.7 9.7 0 0 0 9.15 6.49h41.18a13.16 13.16 0 0 0 6.72-24.47z" fill="#d1ba32" opacity=".2"/><path d="m332.04 135.19-5.3-6.76-5.3 6.76h3.23v5.33h4.14v-5.33z" fill="#f9e77d"/><path d="m439.59 267.08a8.86 8.86 0 0 0 -2.79.44 12.5 12.5 0 0 0 -24.63 3 12 12 0 0 0 .09 1.48 6.65 6.65 0 0 0 -1.35-.13 6.75 6.75 0 0 0 0 13.5h28.68a9.17 9.17 0 0 0 0-18.33z" fill="#fff"/><path d="m444.26 268.37a9.07 9.07 0 0 1 .91 4 9.16 9.16 0 0 1 -9.17 9.16h-28.67a6.8 6.8 0 0 1 -2.78-.6 6.74 6.74 0 0 0 6.36 4.52h28.68a9.16 9.16 0 0 0 4.67-17z" fill="#d1ba32" opacity=".2"/><path d="m421.41 271.21 3.91 4.98 3.91-4.98h-2.38v-3.94h-3.06v3.94z" fill="#f9e77d"/></svg>