<svg viewBox="0 0 2887.83 2800" xmlns="http://www.w3.org/2000/svg" xmlns:xlink="http://www.w3.org/1999/xlink"><linearGradient id="a" gradientUnits="userSpaceOnUse" x1="2228.99" x2="4951.83" y1="1727.49" y2="1755.48"><stop offset="0" stop-color="#285780"/><stop offset="1" stop-color="#255680"/></linearGradient><linearGradient id="b" gradientUnits="userSpaceOnUse" x1="739.87" x2="3055.79" y1="1112.25" y2="1136.07"><stop offset="0" stop-color="#e9b42d"/><stop offset="1" stop-color="#c99d50"/></linearGradient><clipPath id="c"><path d="m1508.61 2297.27c-156.26-210.36-87.3-535.7 36.43-591.13 64.35-28.82 116.89 27.3 179.44-11.77 69.3-43.28 39.06-133.57 97.15-293.68 30-82.73 84.43-232.75 189.83-259.46 104.53-26.49 155 94.69 269 72.41 107.82-21.07 103.7-137.43 246.75-200.15 13.3-5.84 163.81-69.67 247.26-.36 84.78 70.43 70.39 253.41-12.9 346.05-75.67 84.17-186 69-197.42 128.55-12.61 65.59 117.21 105.45 110.73 174.08-9.37 99.18-287.45 88.25-338.26 234.06-29.87 85.73 52.89 128 39 243.47-17.92 149.09-177.77 261.83-300.18 305.21-177.37 62.85-431.39 35.05-566.83-147.28z"/></clipPath><clipPath id="d"><path d="m841.2 1973.59c-259.14 38.92-513.78-175-504.48-310.26 4.84-70.35 79.08-90.31 74-163.88-5.59-81.51-99.49-97.31-213.45-223.89-58.88-65.41-165.65-184-139.64-289.59 25.8-104.69 156.47-92.19 190.46-203.3 32.17-105.07-72.45-156.17-60.49-311.91 1.11-14.48 15.59-177.33 116-218.35 102-41.68 256.72 57.11 299.28 174.19 38.69 106.4-26.56 196.58 20.58 234.68 51.94 42 148.2-53.82 205.7-15.81 83.12 54.93-57.36 295.17 47.4 408.6 61.6 66.7 137.79 13.53 233.19 80.13 123.14 86 147.41 280 128.1 408.47-27.99 186.11-172.03 397.18-396.65 430.92z"/></clipPath><linearGradient id="e" gradientUnits="userSpaceOnUse" x1="140.57" x2="2765.02" y1="2592.82" y2="2592.82"><stop offset=".49" stop-color="#e3e0b3"/><stop offset="1" stop-color="#fff"/></linearGradient><linearGradient id="f" gradientUnits="userSpaceOnUse" x1="1879.14" x2="233.2" y1="117.91" y2="3409.8"><stop offset="0" stop-color="#6c7871"/><stop offset="1" stop-color="#255680"/></linearGradient><linearGradient id="g" x1="1167.27" x2="1453.26" xlink:href="#f" y1="15.1" y2="1159.06"/><linearGradient id="h" gradientUnits="userSpaceOnUse" x1="1695.58" x2="2140.17" y1="821.77" y2="1713.94"><stop offset="0" stop-color="#255680"/><stop offset="1" stop-color="#3d607f"/></linearGradient><linearGradient id="i" x1="1957.03" x2="2388.86" xlink:href="#b" y1="1407.77" y2="2208.69"/><linearGradient id="j" x1="1838.44" x2="2257.95" xlink:href="#b" y1="1461" y2="2302.85"/><linearGradient id="k" x1="1000.42" x2="681.72" xlink:href="#a" y1="976.35" y2="2504.35"/><linearGradient id="l" gradientTransform="matrix(-1 .03 .03 1 -4065.87 -19.91)" gradientUnits="userSpaceOnUse" x1="-4815.56" x2="-4720.12" y1="2736.94" y2="2736.94"><stop offset="0" stop-color="#255680"/><stop offset="1" stop-color="#26202b"/></linearGradient><linearGradient id="m" gradientTransform="matrix(-1 0 0 1 93.9 0)" gradientUnits="userSpaceOnUse" x1="-671.36" x2="-637.14" y1="2546.65" y2="2546.65"><stop offset="0" stop-color="#cfb933"/><stop offset="1" stop-color="#f9af2a"/></linearGradient><linearGradient id="n" gradientTransform="matrix(-.96 .27 .27 .96 -3044.9 -343.42)" x1="-3264.82" x2="-3163.42" xlink:href="#l" y1="3899.01" y2="3899.01"/><linearGradient id="o" x1="-976.44" x2="-934.17" xlink:href="#m" y1="2535.36" y2="2535.36"/><linearGradient id="p" x1="890.07" x2="571.37" xlink:href="#a" y1="953.33" y2="2481.33"/><linearGradient id="q" x1="615.99" x2="736.95" xlink:href="#a" y1="2260.13" y2="1685.61"/><linearGradient id="r" x1="671.75" x2="353.05" xlink:href="#a" y1="907.8" y2="2435.8"/><linearGradient id="s" x1="943.46" x2="891.89" xlink:href="#h" y1="1760.87" y2="1614.75"/><linearGradient id="t" x1="718.17" x2="737.08" xlink:href="#h" y1="1549.17" y2="1679.82"/><linearGradient id="u" x1="-730.24" x2="-623.37" xlink:href="#m" y1="1569.68" y2="1569.68"/><linearGradient id="v" x1="-649.77" x2="-653.56" xlink:href="#m" y1="1108.93" y2="1372.19"/><linearGradient id="w" x1="-679.42" x2="-664.95" xlink:href="#m" y1="1050" y2="1190.49"/><linearGradient id="x" gradientTransform="translate(-5492.74)" x1="6585.59" x2="6485.04" xlink:href="#l" y1="1560.61" y2="1417.84"/><linearGradient id="y" x1="899.98" x2="1120.02" xlink:href="#h" y1="1796.9" y2="1349.95"/><linearGradient id="z" x1="792.5" x2="1275.89" xlink:href="#h" y1="1510.03" y2="1510.03"/><linearGradient id="A" x1="-1189.5" x2="-1117.4" xlink:href="#m" y1="1624.34" y2="1624.34"/><linearGradient id="B" x1="1461.94" x2="2194.99" xlink:href="#m" y1="-618.44" y2="852.61"/><linearGradient id="C" x1="1893.03" x2="2605.04" xlink:href="#m" y1="347.79" y2="1668.37"/><linearGradient id="D" x1="1697.49" x2="2389.19" xlink:href="#m" y1="435.56" y2="1823.64"/><path d="m2721.2 800.06c74.93-682.42-586.67-919.5-1055.7-744.77-472.83 176.14-582.45-115.85-1247.32-32.42-673.18 84.47-331.42 1141.25-331.42 1141.25s107.12 918.94 234 1342.52c126.22 421.29 1334.43 268.87 1628.35 256.3 292.22-12.5 546.15 11.62 800.39-451 253.82-461.67-102.98-831.72-28.3-1511.88z" fill="#ebe9e2"/><path d="m1714.45 550.71-51.8 3.5a403 403 0 0 0 -23.44-66.72l43-28.84a25.49 25.49 0 0 0 6.73-35.57l-50.12-73.74a26 26 0 0 0 -35.82-7.16l-43.54 29.06a416.78 416.78 0 0 0 -53.72-46.4l23-47.15a25.93 25.93 0 0 0 -12.1-34.49l-80.69-39.7a25.8 25.8 0 0 0 -34.76 11.5l-23.12 47.3a413.9 413.9 0 0 0 -70-13.85l-4-53a26.51 26.51 0 0 0 -28-24.25l-90.19 5.32a25.55 25.55 0 0 0 -24.21 27.4l4 53.2a409.69 409.69 0 0 0 -67.83 22.31l-30.42-44.35a26.8 26.8 0 0 0 -36.66-7.33l-75.49 49.57a25.59 25.59 0 0 0 -7 36.07l30.53 44.36a407.38 407.38 0 0 0 -47.37 53.37l-48.84-23.59c-13.22-6.39-29.12-1.1-35.5 11.81l-40 80.84a26 26 0 0 0 12.43 35l48.58 23.22a399.24 399.24 0 0 0 -13.65 70.33l-53.68 3.62a26.15 26.15 0 0 0 -24.63 27.88l6.86 90.08c1.09 14.4 13.9 25.24 28.59 24.21l53.24-3.75a402.52 402.52 0 0 0 23.89 68.13l-43.8 29.23a25.82 25.82 0 0 0 -7 36.31l51.7 74.56a26.85 26.85 0 0 0 36.91 6.82l43.47-29.2a416.76 416.76 0 0 0 55.45 47.06l-22.72 46.46a25.82 25.82 0 0 0 12.36 34.74l82.18 38.7a26.59 26.59 0 0 0 35.18-12.28l22.41-46a413.41 413.41 0 0 0 71.66 13.07l3.86 50.87a26 26 0 0 0 28.1 23.8l90-7.1a26.08 26.08 0 0 0 24.06-27.84l-3.85-50.72a410.4 410.4 0 0 0 68.24-23.77l28.75 41.78a26 26 0 0 0 36.06 6.66l73.86-50.35a25.71 25.71 0 0 0 6.77-35.8l-28.83-42a408.18 408.18 0 0 0 46.54-54.09l46.08 22.12a25.77 25.77 0 0 0 34.37-12l38.47-79.93a25.69 25.69 0 0 0 -12-34.27l-46.17-22.31a398.34 398.34 0 0 0 12.83-69.61l51.37-3.61a25.47 25.47 0 0 0 23.65-27.37l-6.7-88.3a25.9 25.9 0 0 0 -27.53-23.82zm-466.87-158.66c145.15-9.22 271 99.46 281.87 242.69s-97.26 268-242.3 278.83c-145.91 10.86-273.75-97.68-284.74-242.49s99.14-269.75 245.17-279.03z" fill="#bbb374" opacity=".3"/><path d="m1508.61 2297.27c-156.26-210.36-87.3-535.7 36.43-591.13 64.35-28.82 116.89 27.3 179.44-11.77 69.3-43.28 39.06-133.57 97.15-293.68 30-82.73 84.43-232.75 189.83-259.46 104.53-26.49 155 94.69 269 72.41 107.82-21.07 103.7-137.43 246.75-200.15 13.3-5.84 163.81-69.67 247.26-.36 84.78 70.43 70.39 253.41-12.9 346.05-75.67 84.17-186 69-197.42 128.55-12.61 65.59 117.21 105.45 110.73 174.08-9.37 99.18-287.45 88.25-338.26 234.06-29.87 85.73 52.89 128 39 243.47-17.92 149.09-177.77 261.83-300.18 305.21-177.37 62.85-431.39 35.05-566.83-147.28z" fill="url(#a)"/><g clip-path="url(#c)" fill="#fff"><path d="m1569.84 2466.61-7.07-4.36c168.81-273.75 343.23-522.25 518.55-738.72 140.26-173.17 281.35-326.3 419.36-455.12 235.19-219.53 382-293.33 383.47-294.05l3.68 7.44c-1.44.72-147.5 74.2-381.92 293.09-216.38 202.04-554.42 572.79-936.07 1191.72z"/><path d="m2478.88 1290.25c31.46-255.51 172-428.09 173.46-429.8l6.4 5.29c-1.4 1.7-140.46 172.52-171.62 425.52z"/><path d="m2055.57 1754.05c-54-275.18-39.18-453.8-17.22-555.18 23.93-110.42 60.35-154.91 61.89-156.75l6.37 5.32c-.36.44-36.91 45.3-60.33 154.1-21.65 100.53-36.2 277.72 17.44 550.91z"/><path d="m1711.45 2233.32c-200.16-447.56-125.7-726.89-124.92-729.66l8 2.24c-.2.7-19.28 73.16-12.07 201.69 6.36 113.18 35.21 295.68 136.57 522.33z"/><path d="m2196.64 1713.72a760.23 760.23 0 0 1 -86.14-16.59l2.05-8.05c188.59 47.92 374.17 14.11 496.64-22.7 132.76-39.91 221.89-91.76 222.77-92.28l4.21 7.16c-.9.53-90.89 52.89-224.59 93.07-104.76 31.49-255.38 60.8-414.94 39.39z"/><path d="m1822.14 2154.08q-23.09-3.09-46.57-7.95l1.69-8.13c198.62 41.27 376.51-18.45 490.77-75.8 123.9-62.2 201.65-135 202.42-135.74l5.7 6c-.78.74-79.42 74.38-204.39 137.12-106.44 53.47-267.61 108.92-449.62 84.5z"/></g><path d="m841.2 1973.59c-259.14 38.92-513.78-175-504.48-310.26 4.84-70.35 79.08-90.31 74-163.88-5.59-81.51-99.49-97.31-213.45-223.89-58.88-65.41-165.65-184-139.64-289.59 25.8-104.69 156.47-92.19 190.46-203.3 32.17-105.07-72.45-156.17-60.49-311.91 1.11-14.48 15.59-177.33 116-218.35 102-41.68 256.72 57.11 299.28 174.19 38.69 106.4-26.56 196.58 20.58 234.68 51.94 42 148.2-53.82 205.7-15.81 83.12 54.93-57.36 295.17 47.4 408.6 61.6 66.7 137.79 13.53 233.19 80.13 123.14 86 147.41 280 128.1 408.47-27.99 186.11-172.03 397.18-396.65 430.92z" fill="url(#b)"/><g clip-path="url(#d)" fill="#fff"><path d="m1019.44 1999.22-7.17 4.19c-162.15-277.75-299.39-548.63-407.9-805.12-86.83-205.24-155.57-401.79-204.31-584.18-83.06-310.82-79.06-475.11-79.06-476.72l8.31.26c-.05 1.61-3.92 165.06 78.94 474.9 76.47 285.99 244.59 758.71 611.19 1386.67z"/><path d="m409.07 643.63c-210.65-148-296.8-353.22-297.65-355.27l7.68-3.16c.84 2 86.16 205.11 294.75 351.63z"/><path d="m619.19 1235.37c-268.25-81.79-418.88-178.93-498-246-86.19-73.07-108.31-126.14-109.19-128.37l7.7-3.12c.22.53 22.6 53.88 107.59 125.74 78.53 66.4 228 162.59 494.34 243.8z"/><path d="m880.2 1764.5c-489.1-33.94-700.55-231.06-702.63-233l5.74-6c.52.5 55.49 51.43 172.3 105.54 102.86 47.64 277.47 108 525.16 125.23z"/><path d="m650 1091.91a759.72 759.72 0 0 1 -55.17 68.2l-6.14-5.59c130.99-143.87 188.46-323.52 213.59-448.92 27.25-135.92 23.43-239 23.38-240l8.31-.34c0 1 3.9 105.08-23.54 242-21.5 107.22-66.5 253.92-160.43 384.65z"/><path d="m862.36 1629.55q-13.59 18.92-28.93 37.36l-6.38-5.32c129.87-155.85 160.86-340.92 164-468.73 3.41-138.59-24.26-241.45-24.54-242.48l8-2.19c.28 1 28.26 105.08 24.83 244.88-2.91 119.06-29.8 287.36-136.98 436.48z"/></g><path d="m2765 2573.47-2624.43-22.69v67.12c0 18.22 11.45 33.71 27 36.47l742.12 132.18a102.86 102.86 0 0 0 26.62 1.24l1800.24-150.7c16.08-1.35 28.52-16.89 28.52-35.6z" fill="#bbb374"/><path d="m1799.22 2465.9-1668 122.79c-29.85 2.2-54.12-21.15-54.12-52.15v-1242.15c0-31 24.27-56.14 54.12-56.14l59 34 1609-34c24.59 0 44.47 22.72 44.47 50.75v1122.88c0 28.03-19.88 52.21-44.47 54.02z" fill="#bbb374"/><path d="m1825.82 2465.9-1668 122.79c-29.85 2.2-54.12-21.15-54.12-52.15v-1242.15c0-31 24.27-56.14 54.12-56.14h1668c24.59 0 44.47 22.72 44.47 50.75v1122.88c0 28.03-19.88 52.21-44.47 54.02z" fill="#fff"/><path d="m1773.85 2386.74-1553.61 106.66c-24.29 1.66-44-17.5-44-42.81v-1087.5c0-25.31 19.74-45.92 44-46l1553.61-6.7c20.29-.09 36.7 18.53 36.7 41.58v990.53c0 23.03-16.41 42.84-36.7 44.24z" fill="#d3c87e"/><g fill="#fff"><path d="m771.25 1419.13-419.28 1.09-.06-39.98 419.28.14z"/><path d="m968.69 1407.55-96.86.17-.04-27.31 96.86.03z"/><path d="m968.75 1445.22-96.86.45-.04-27.31 96.86-.25z"/><path d="m1451.43 1442.98-375.76 1.74-.05-26.88 375.77-.97z"/><path d="m1513.11 1478.79-372.03 2.8-.04-26.75 372.03-2.03z"/><path d="m1513.16 1514.88-372.02 3.88-.05-26.75 372.03-3.11z"/><path d="m1513.22 1550.97-372.03 4.96-.04-26.75 372.03-4.19z"/><path d="m968.81 1482.89-96.86.73-.04-27.31 96.85-.53z"/><path d="m968.86 1520.56-96.85 1.01-.04-27.32 96.85-.81z"/><path d="m968.92 1558.22-96.85 1.29-.05-27.31 96.86-1.09z"/><path d="m968.98 1595.89-96.85 1.57-.05-27.31 96.86-1.37z"/><path d="m1228.52 1591.68-238.4 3.87-.04-27.07 238.4-3.37z"/><path d="m969.04 1633.56-96.86 1.85-.04-27.31 96.86-1.65z"/><path d="m969.1 1671.22-96.86 2.13-.04-27.31 96.85-1.93z"/><path d="m969.15 1708.89-96.85 2.41-.04-27.31 96.85-2.21z"/><path d="m1340.28 1626.46-264.33 5.05-.04-26.88 264.33-4.5z"/><path d="m1477.66 1660.04-336.29 7.39-.05-26.75 336.3-6.69z"/><path d="m1477.71 1696.23-336.29 8.37-.04-26.75 336.29-7.67z"/><path d="m969.21 1746.56-96.85 2.69-.04-27.31 96.85-2.49z"/><path d="m969.27 1784.22-96.85 2.98-.04-27.32 96.85-2.76z"/><path d="m969.33 1821.89-96.85 3.25-.05-27.31 96.86-3.05z"/><path d="m969.39 1859.56-96.86 3.53-.04-27.31 96.86-3.33z"/><path d="m969.45 1897.23-96.86 3.81-.04-27.32 96.85-3.6z"/><path d="m969.5 1934.89-96.85 4.09-.04-27.31 96.85-3.89z"/><path d="m969.56 1972.56-96.85 4.37-.04-27.31 96.85-4.17z"/><path d="m969.62 2010.23-96.85 4.65-.04-27.31 96.85-4.45z"/><path d="m969.68 2047.89-96.85 4.93-.04-27.31 96.85-4.73z"/><path d="m969.74 2085.56-96.85 5.21-.04-27.31 96.85-5.01z"/><path d="m969.8 2123.23-96.85 5.49-.05-27.31 96.85-5.29z"/><path d="m969.85 2160.9-96.85 5.77-.04-27.31 96.85-5.57z"/><path d="m969.91 2198.56-96.85 6.05-.04-27.31 96.85-5.85z"/><path d="m969.97 2236.23-96.85 6.33-.04-27.31 96.85-6.13z"/><path d="m970.03 2273.9-96.85 6.61-.04-27.31 96.85-6.41z"/><path d="m970.09 2311.56-96.85 6.89-.04-27.31 96.84-6.69z"/><path d="m970.14 2349.23-96.84 7.17-.05-27.31 96.85-6.97z"/><path d="m970.2 2386.9-96.84 7.45-.05-27.31 96.85-7.25z"/><path d="m1253.33 1407.05-264.16.47-.04-27.07 264.16.09z"/><path d="m1452.55 2168.41-375.73 23.47-.04-26.88 375.73-22.7z"/><path d="m1514.22 2200.65-371.99 24.32-.04-26.75 371.99-23.54z"/><path d="m1514.28 2236.75-371.99 25.39-.05-26.75 372-24.62z"/><path d="m1674.64 2261.43-362.36 25.79-.05-26.4 362.37-25.03z"/><path d="m1674.69 2297.07-362.36 26.82-.04-26.39 362.36-26.08z"/><path d="m1674.75 2332.7-362.36 27.87-.04-26.4 362.36-27.12z"/><path d="m1254.46 2143.94-264.13 15.74-.04-27.07 264.13-15.19z"/><path d="m1451.94 1769.42-375.75 11.53-.05-26.89 375.76-10.74z"/><path d="m1513.61 1803.63-372.01 12.48-.05-26.75 372.02-11.71z"/><path d="m1513.66 1839.72-372.01 13.56-.04-26.75 372.02-12.79z"/><path d="m1513.72 1875.81-372.01 14.64-.04-26.75 372.01-13.86z"/><path d="m1229.04 1923.93-238.4 10.07-.04-27.07 238.4-9.57z"/><path d="m1340.79 1955.81-264.32 11.93-.04-26.89 264.32-11.38z"/><path d="m1478.16 1985.81-336.28 16.15-.04-26.76 336.28-15.44z"/><path d="m1478.21 2022.01-336.27 17.12-.04-26.76 336.27-16.42z"/><path d="m1552.82 2054.19-332.23 17.88-.04-26.59 332.23-17.18z"/><path d="m1552.88 2090.17-332.23 18.84-.04-26.59 332.23-18.14z"/><path d="m1253.84 1738.65-264.15 7.34-.04-27.07 264.15-6.79z"/><path d="m771.35 1479.67-239.99 1.72-.06-39.45 239.98-1.02z"/><path d="m469.29 1481.84 45.2-.32-.07-39.5-45.2.19z"/><path d="m771.43 1535.37-239.98 2.74-.07-39.46 239.99-2.03z"/><path d="m469.37 1538.81 45.2-.51-.06-39.5-45.2.38z"/><path d="m771.52 1591.07-239.99 3.75-.06-39.45 239.99-3.05z"/><path d="m469.46 1595.79 45.2-.71-.06-39.5-45.2.57z"/><path d="m772.13 1986.44-419.26 19.08-.06-39.98 419.26-17.85z"/><path d="m772.22 2046.99-239.97 12.01-.06-39.45 239.97-11.31z"/><path d="m470.18 2062.11 45.2-2.26-.06-39.5-45.2 2.13z"/><path d="m772.31 2102.69-239.97 13.03-.06-39.46 239.97-12.32z"/><path d="m470.27 2119.09 45.2-2.46-.06-39.5-45.2 2.32z"/><path d="m772.39 2158.39-239.96 14.04-.06-39.46 239.96-13.33z"/><path d="m470.36 2176.06 45.19-2.65-.06-39.5-45.19 2.51z"/><path d="m771.6 1647.15-419.27 8.32-.06-39.98 419.27-7.09z"/><path d="m771.7 1707.69-239.98 5.86-.07-39.45 239.99-5.16z"/><path d="m469.64 1715.07 45.21-1.11-.07-39.5-45.2.98z"/><path d="m771.78 1763.39-239.98 6.87-.06-39.45 239.98-6.17z"/><path d="m469.73 1772.04 45.2-1.29-.06-39.5-45.2 1.16z"/><path d="m771.96 1875.52-239.98 8.9-.06-39.45 239.98-8.2z"/><path d="m469.91 1886.72 45.2-1.67-.06-39.5-45.2 1.54z"/><path d="m772.04 1931.21-239.97 9.92-.06-39.45 239.97-9.21z"/><path d="m470 1943.7 45.2-1.87-.06-39.5-45.2 1.74z"/><path d="m771.87 1819.09-239.98 7.88-.06-39.45 239.98-7.18z"/><path d="m469.82 1829.01 45.2-1.48-.06-39.5-45.2 1.35z"/><path d="m772.48 2214.07-419.24 26.29-.07-39.98 419.25-25.06z"/><path d="m772.57 2274.61-239.96 16.15-.06-39.45 239.96-15.45z"/><path d="m470.54 2294.94 45.2-3.05-.06-39.5-45.2 2.91z"/><path d="m772.66 2330.31-239.96 17.16-.07-39.45 239.97-16.46z"/><path d="m470.63 2351.91 45.2-3.23-.07-39.5-45.19 3.1z"/><path d="m772.75 2386.01-239.97 18.17-.06-39.45 239.97-17.47z"/><path d="m470.72 2408.88 45.19-3.42-.06-39.5-45.19 3.29z"/><path d="m823.69 2382.35-9.23.7-1.55-1002.66 9.23.01z"/><path d="m1050.7 1272.22c0 11.55-8.58 20.93-19.18 21s-19.23-9.31-19.23-20.88 8.61-21 19.23-21 19.18 9.34 19.18 20.88z"/><path d="m157.76 2588.69 1659.61-122.17 8.45-.62c11.28-.83 21.54-6.41 29.38-14.87-119.43-6.53-193.61-48.92-241.46-92.71-96.09-87.94-79.43-174.67-183-232.49-129.25-72.12-230.88 19.26-329-70.9-59.46-54.67-30.27-95.43-103.44-177.12-81-90.48-133.79-60.07-215.24-141.5-103-103-51.47-183.07-140.17-257-107.61-89.68-223.66-6.67-326.1-92.68-44.18-37.1-68.42-91-81.08-148.38h-77.94c-29.85 0-54.12 25.13-54.12 56.14v1242.15c0 31 24.26 54.35 54.11 52.15z" opacity=".48"/></g><path d="m1904.41 2459.09-1763.84 129.25 769.07 137a103.3 103.3 0 0 0 26.62 1.24l1828.74-153.11-832.53-113.47a134.36 134.36 0 0 0 -28.06-.91z" fill="url(#e)"/><path d="m397.94 2589.45 1468.45-109.21 454.47 61.46-1455.8 116.74z" fill="#d3c87e"/><path d="m2078.21 503.87-1518.74-49.87c-50.93-1.67-92.39 38.5-92.39 89.74v1480.2c0 51.24 41.46 91 92.39 88.83l1518.74-64.85c43.93-1.87 79.4-41.74 79.4-89.05v-1366.73c0-47.31-35.47-86.83-79.4-88.27z" fill="url(#f)"/><path d="m559.47 2083.27c-34.64 1.44-62.81-25.64-62.81-60.47v-1478.25a60.64 60.64 0 0 1 62.81-61.09l1518.74 47.87c29.93.94 54.12 27.84 54.12 60.08v1368.43c0 32.25-24.19 59.39-54.12 60.62z" fill="#fff" opacity=".74"/><path d="m2078.21 503.87-1518.74-49.87c-50.93-1.67-92.39 38.5-92.39 89.74v66.55l1690.54 43.34v-61.49c0-47.31-35.48-86.83-79.41-88.27z" fill="url(#g)"/><path d="m631.35 539.49a29.05 29.05 0 0 1 -30 29.3 31.16 31.16 0 0 1 -30-31 29 29 0 0 1 30-29.3 31.17 31.17 0 0 1 30 31z" fill="#fff"/><path d="m735.91 542.52a28.86 28.86 0 0 1 -29.67 29.18 31 31 0 0 1 -29.75-30.9 28.85 28.85 0 0 1 29.75-29.17 31 31 0 0 1 29.67 30.89z" fill="#fff"/><path d="m839.47 545.53c0 16.49-13.14 29.49-29.38 29s-29.47-14.22-29.47-30.75a28.64 28.64 0 0 1 29.47-29c16.24.5 29.38 14.27 29.38 30.75z" fill="#fff"/><path d="m1376.96 795.46-802.19-14.42v47.17l802.19 12.69z" fill="#fff"/><path d="m1980.07 806.3v44.15l84.87 1.34v-43.96z" fill="#fff"/><path d="m744.36 943.59-169.59-1.81v-48.64l169.59 2.18z" fill="#fff"/><path d="m1650.38 953.23-797.75-8.49v-48.02l797.75 10.26z" fill="#fff"/><path d="m1017.97 1027.9-165.34-1.13v-48.02l165.34 1.5z" fill="#fff"/><path d="m1901.82 1033.97-778.27-5.34v-47.42l778.27 7.06z" fill="#fff"/><path d="m1017.97 1109.31-165.34-.51v-48.02l165.34.87z" fill="#fff"/><path d="m1901.82 1112.02-778.27-2.39v-47.42l778.27 4.12z" fill="#fff"/><path d="m744.36 1190.91-169.59.12v-48.64l169.59.25z" fill="#fff"/><path d="m1650.38 1190.26-797.75.57v-48.02l797.75 1.2z" fill="#fff"/><path d="m1017.97 1272.11-165.34.75v-48.02l165.34-.38z" fill="#fff"/><path d="m1901.82 1268.13-778.27 3.51v-47.42l778.27-1.78z" fill="#fff"/><path d="m1017.97 1353.52-165.34 1.37v-48.02l165.34-1.01z" fill="#fff"/><path d="m1901.82 1346.19-778.27 6.45v-47.42l778.27-4.73z" fill="#fff"/><path d="m1017.97 1434.92-165.34 2v-48.03l165.34-1.62z" fill="#fff"/><path d="m1901.82 1424.25-778.27 9.4v-47.43l778.27-7.67z" fill="#fff"/><path d="m1287.3 1512.05-161.21 2.56v-47.42l161.21-2.2z" fill="#fff"/><path d="m2022.59 1500.39-632.34 10.03v-46.83l632.34-8.63z" fill="#fff"/><path d="m744.36 1603.1-169.59 3.34v-48.64l169.59-2.96z" fill="#fff"/><path d="m1650.38 1585.3-797.75 15.68v-48.03l797.75-13.9z" fill="#fff"/><path d="m1017.97 1679.13-165.34 3.88v-48.03l165.34-3.51z" fill="#fff"/><path d="m1901.82 1658.42-778.27 18.24v-47.43l778.27-16.51z" fill="#fff"/><path d="m1017.97 1760.53-165.34 4.51v-48.03l165.34-4.13z" fill="#fff"/><path d="m1901.82 1736.47-778.27 21.19v-47.42l778.27-19.46z" fill="#fff"/><path d="m744.36 1850.42-169.59 5.26v-48.64l169.59-4.88z" fill="#fff"/><path d="m1650.38 1822.33-797.75 24.74v-48.03l797.75-22.97z" fill="#fff"/><path d="m1017.97 1923.34-165.34 5.76v-48.03l165.34-5.38z" fill="#fff"/><path d="m1901.82 1892.59-778.27 27.08v-47.42l778.27-25.36z" fill="#fff"/><path d="m1487.87 1072.92c-177.39-258.12-484.43-176-678.66-461.19-35-51.43-58.8-103.77-75.1-152l-174.64-5.73c-50.93-1.67-92.39 38.5-92.39 89.74v1480.2c0 51.24 41.46 91 92.39 88.83l1463.12-62.47c-33.52-48.34-325.45-227.4-400.86-502.31-68.97-251.41-26.84-319.35-133.86-475.07z" fill="#fff" opacity=".5"/><path d="m2396.6 1623.85c0-154.17-142.21-274.53-311.59-269-96.47 3.14-180.39 46.62-232.79 110.82v-.06c-.33.4-.63.81-1 1.21-.9 1.13-1.78 2.27-2.66 3.41-1.62 2.07-3.22 4.15-4.77 6.26-.92 1.25-1.82 2.51-2.72 3.77q-2.23 3.16-4.38 6.39c-.82 1.22-1.65 2.45-2.45 3.69q-2.38 3.72-4.63 7.52c-.55.91-1.12 1.81-1.66 2.73q-3 5.15-5.72 10.41c-.49.93-.93 1.88-1.4 2.82-1.33 2.63-2.63 5.28-3.87 8-.61 1.31-1.18 2.63-1.76 4q-1.58 3.55-3 7.15-.84 2.09-1.65 4.2c-1 2.46-1.85 4.94-2.72 7.44-.45 1.3-.92 2.6-1.35 3.92-1 3.14-2 6.3-2.91 9.49-.18.66-.4 1.32-.59 2q-1.59 5.76-2.89 11.63c-.26 1.15-.47 2.31-.71 3.47-.59 2.8-1.14 5.61-1.63 8.44-.24 1.44-.46 2.89-.69 4.34q-.6 3.93-1.08 7.89c-.18 1.49-.35 3-.5 4.46-.29 2.78-.5 5.59-.69 8.4-.09 1.31-.2 2.61-.27 3.92-.21 4.11-.33 8.23-.33 12.39 0 98.93 59.91 186.2 149.74 232.93q12.4 6.43 25.54 11.85 6.57 2.7 13.32 5.12a330.5 330.5 0 0 0 102.21 19.04c5 .15 9.95.17 14.88.1 1.67 0 3.32-.12 5-.16 3.27-.1 6.53-.2 9.78-.38 2-.12 3.94-.3 5.91-.45 2.9-.22 5.79-.43 8.67-.73 2.1-.21 4.19-.48 6.28-.73 2.72-.33 5.44-.67 8.13-1.06 2.16-.32 4.29-.67 6.43-1 2.61-.44 5.21-.89 7.8-1.38 2.16-.42 4.32-.86 6.46-1.31 2.54-.54 5.05-1.1 7.56-1.69 2.15-.51 4.3-1 6.43-1.58 2.48-.64 4.94-1.32 7.39-2 2.11-.59 4.23-1.19 6.32-1.83.77-.24 1.56-.44 2.33-.68h-.05c117.18-36.8 202.28-136.31 202.28-255.17z" fill="url(#h)"/><path d="m2373.33 1623.89c0 153.78-141.49 274.3-310 269.38-162.25-4.74-289.42-124.83-289.42-268.39s127.17-264.07 289.42-269.34c168.51-5.48 310 114.57 310 268.35z" fill="url(#i)"/><path d="m1987.27 1698.37-120.27-61.23v-19.72l120.32-69.67v33.56l-83.32 44.46 83.24 39.18z" fill="#fff"/><path d="m2115.26 1520.57-68.43 206.8-34.38-.35 67.89-206z" fill="#fff"/><path d="m2140.69 1665.41 87.94-40.13-87.94-45v-34.16l128.24 70.28v20.65l-128.24 62.37z" fill="#fff"/><path d="m2136.6 1826.35c-36.57-80.52.4-154.92-49-206.56-49.6-51.87-113.22-3.38-180.65-44.89-25.79-15.87-54.28-46.25-75.34-108.89-36.32 44.59-57.75 99.57-57.75 158.87 0 143.56 127.17 263.65 289.42 268.39a330.63 330.63 0 0 0 108.81-14.89 185.08 185.08 0 0 1 -35.49-52.03z" fill="url(#j)" opacity=".3"/><path d="m1071.56 1414.41c27.72-29.6-49-140.82-90.12-189.55-35.89-42.58-72.78-86.34-118.08-80.8-39.77 4.87-78.47 46.81-80.79 87-6.24 108.16 249.57 225.43 288.99 183.35z" fill="url(#k)"/><path d="m738.65 2557.25c-5.22 4.24-6.18 14.83-6.81 21.76-.28 3.09-.42 4.64-.07 5.73 2.52 8 18 8.81 42.21 11.29 38.31 3.91 49.71 6.93 52.71 1.23 2.81-5.34-4-14.09-4.76-15.06-4.11-5.18-9.17-7.07-18.93-10.28-18.07-6-30.29-9.21-34-10.19-23.07-6.17-26.93-7.27-30.35-4.48z" fill="url(#l)"/><path d="m761.43 2522.25 3.83 43.65c-1.09 2.11-14.06 8.43-24.37 3l-9.89-42.9z" fill="url(#m)"/><path d="m1042.44 2551.64c-6.26 6.91-7.68 19.63-2.24 25.89s13.38 1.54 36.18 2.22c24.43.73 30.81 6.5 47.4 1.92 6.71-1.85 18.55-6.35 18.33-11.13-.16-3.37-6.19-5.11-26.33-11.86-28.58-9.57-28.46-10.1-34.53-11.1-15.25-2.53-30.55-5.06-38.81 4.06z" fill="url(#n)"/><path d="m1058.09 2511.8 12.25 40.75c-.93 2.19-13.38 9.48-24.07 4.86l-18.2-39.55z" fill="url(#o)"/><path d="m949.24 1619.31a3817.2 3817.2 0 0 0 120.62 904.35l-46.86 12.62c-39.65-37-89.68-95.18-113.81-177.44-15-51.05-10-77.28-19.49-140.07-15.14-100-45.78-152.36-77.46-233-28.46-72.44-62.11-178.77-80.15-320.89z" fill="#26202b"/><path d="m808.15 1606.24q-14.35 261.27-23.4 532.17-6.71 203.24-9.94 401.28l-47.9 5.92a557.9 557.9 0 0 1 -50-128.93c-17-68.35-13.1-108.95-20.57-179.8-8.39-79.46-20.58-96.77-42.16-197-43.81-203.44-65.72-305.16-16.85-368.43 15.91-20.55 65.67-72.08 210.82-65.21z" fill="#26202b"/><path d="m575.46 1168.48a743.74 743.74 0 0 1 159.3-26.61c95.72-5.41 143.58-8.11 177.49 14.68 78.33 52.65 17.69 174.16 49.75 475.36 4.58 43 5.61 86.34 8.92 129.47 5.49 71.41 6.74 75.29 1.77 82.52-31.15 45.38-147.4-23.06-317.79 4-95.34 15.14-138.58 50-164.69 24.86-30.46-29.33-4.34-108.24 18.15-176.16 25.82-78 41.77-79 56.42-137.69 15.32-61.37 6.06-93 3.67-189.75a1713.87 1713.87 0 0 1 7.01-200.68z" fill="url(#p)"/><path d="m807.16 1734c-44.53-3.48-73.42 21.7-111.87 2.07-52.71-26.9-69.65-110.62-66.29-169.87 5.11-90 56.51-113.75 47.65-171.94-4.79-31.47-27.26-73.25-107.93-115.93-1.07 35.92-.87 66.54-.27 90.87 2.39 96.78 11.65 128.38-3.67 189.75-14.65 58.72-30.6 59.72-56.42 137.69-22.49 67.92-48.61 146.83-18.15 176.16 26.11 25.16 69.35-9.72 164.69-24.86 146.81-23.31 253.38 24.22 300 8.8-56.34-93.15-107.44-119.63-147.74-122.74z" fill="url(#q)"/><path d="m636.2 1174.66c-31.8-26.14-95.75 3.45-112.85 11.35-95.33 44.1-180.93 162.93-159.72 288.51 3.18 18.84 17.93 106.93 92.52 149.61 67.31 38.52 158.19 28.61 231-25.94l29.85-26.49 29.39-31.7a235.62 235.62 0 0 0 -78.26-43.12c-48.42-15.63-83.67 12.41-106.14-8.91-15.5-14.7-15.54-40.69-11.71-56.43 7.72-31.74 35.69-40.66 59-63.18 54.9-52.96 65.01-162.36 26.92-193.7z" fill="url(#r)"/><path d="m1093.29 1584.62-426.32-6.36 113.36 54.71 314.05-20.55z" fill="url(#s)"/><path d="m651.92 1589.59a19 19 0 0 0 12.49 17.83l136.22 53.4.62-37-134.25-45.56a11.79 11.79 0 0 0 -15.08 11.33z" fill="url(#t)"/><path d="m717.57 1564.36c-2.62-.58 12.74-31.19 24.8-27.66s71 37.72 76.41 51.79l5.36 14.08s-25.73 2-41.68-3.35-43.62-30.11-64.89-34.86z" fill="url(#u)"/><path d="m741.91 1037.3a331.75 331.75 0 0 1 -5.93 66.29c-3.43 17.66-5.9 22.22-9.06 25.92-4.74 5.58-11.94 10.25-52.6 20.33-22.13 5.49-25 5.34-25.47 7.54-2.38 10.71 58 47.22 120.3 38.42 38.15-5.39 72.86-27.15 70.73-38.58s-40.26-5.33-51.61-26.14c-7.91-14.48 1-35 11.42-52.06-10.14-19.02-47.64-22.72-57.78-41.72z" fill="url(#v)"/><path d="m812.72 1048.52c9-12 9.56-32.84-.82-46-8.93-11.36-23-13-31.39-14-24.37-2.82-55.12 7.36-65.82 29.79-6.34 13.29 7.37 40.92 9.52 45.88 2.43 5.62 6.84 7.54 10.92 11.79 5.65 5.89 14.49 15.25 28.94 30.91a100.13 100.13 0 0 1 5.53-16.54 89.07 89.07 0 0 1 11.58-19.44c12.7-15.48 23-11.06 31.54-22.39z" fill="#26202b"/><path d="m743.47 1093.73s16 26.29 47.92 24.21c28.56-1.86 32.75-65.91 14.5-79.51-6.08-4.53-18.27-6.41-28.18-3.64-5.86 1.65-7.84 4.08-17.46 6.57-8.87 2.3-11.38 1.32-14 3.57-3.35 2.82-5.81 9.73-.21 28.46-5.45-5.52-12-7.64-16.63-5.45a9.75 9.75 0 0 0 -3.8 3.71c-4.05 7.35 2.64 16.66 17.86 22.08z" fill="url(#w)"/><path d="m744.9 1041.1c1.38 1-2.83 6.17-3.14 13.44-.61 14.12 13.68 31.07 28.26 32.51 8.62.85 11-4.35 25.24-5.85a65 65 0 0 1 20.78 1.2c4.48 15.48.27 30.92-10.08 38.08-11.15 7.72-25.38 3-31.33 1.08-4-1.31-16.74-5.48-23.41-17.18-7-12.19-.13-19.54-8.1-27.78-4-4.16-9.3-6-14.44-14a39.61 39.61 0 0 1 -2.9-5.43c7.37-7.82 17.13-17.56 19.12-16.07z" fill="#26202b"/><path d="m790 1095.23s6.17-3.22 16.82-2.62c.52 0 1.1-.12 1.16-.39.25-1-6.59-5.55-12.89-3.78-4.48 1.26-8 5.5-7.36 6.58.27.45 1.27.39 2.27.21z" fill="#fff"/><path d="m812.56 1364-30 273.61c-1 9.44 12.18 23.5 21.67 23l440.77-26.98a15.45 15.45 0 0 0 14.5-12.82l55.33-264.26c1.65-9.62-15.64-19.55-25.39-19.28l-462 13a15.47 15.47 0 0 0 -14.88 13.73z" fill="url(#x)"/><path d="m822.64 1372-30 273.62a15.45 15.45 0 0 0 16.09 17.12l446.41-21.13a15.44 15.44 0 0 0 14.5-12.82l45.61-265.47a15.46 15.46 0 0 0 -15.66-18.07l-462 13a15.45 15.45 0 0 0 -14.95 13.75z" fill="url(#y)"/><path d="m1084.77 1577.5c-39-16.53-25.22-48-71.25-87.29-60.72-51.79-122.62-29.33-144.28-69.47-6.75-12.5-10-32 1.78-63.44l-33.45.94a15.45 15.45 0 0 0 -14.93 13.76l-30 273.62a15.45 15.45 0 0 0 16.09 17.12l446.41-21.13a15.43 15.43 0 0 0 14.5-12.82l6.3-36.63a168.56 168.56 0 0 0 -48.62-18.23c-65.54-13.28-97.67 22.59-142.55 3.57z" fill="url(#z)" opacity=".3"/><path d="m1283.22 1603.34a3.49 3.49 0 0 0 -3.13-4.59c-9.44-.48-31.32-.68-43.4 6.72-15.69 9.61-36 27.15-18.9 36l16 8.27a3.37 3.37 0 0 0 2.33.32c5.67-1.25 29.54-6.54 32.15-7.86 2.33-1.2 11.43-28.2 14.95-38.86z" fill="url(#A)"/><path d="m2617.81 704.07c0-254.2-234.48-452.65-513.77-443.57-159 5.17-297.43 76.87-383.83 182.71v-.09c-.54.66-1 1.34-1.57 2-1.5 1.86-2.94 3.74-4.4 5.61q-4 5.13-7.86 10.34c-1.52 2.06-3 4.13-4.49 6.21q-3.69 5.22-7.22 10.53c-1.35 2-2.72 4-4 6.08-2.63 4.09-5.16 8.24-7.65 12.41-.9 1.5-1.85 3-2.73 4.51q-4.92 8.47-9.43 17.15c-.8 1.54-1.53 3.11-2.31 4.65-2.19 4.34-4.34 8.71-6.38 13.12-1 2.17-1.94 4.35-2.91 6.53q-2.58 5.87-5 11.8c-.93 2.3-1.84 4.6-2.73 6.92-1.56 4.06-3 8.15-4.47 12.27-.75 2.15-1.53 4.29-2.24 6.46-1.71 5.17-3.29 10.4-4.79 15.65-.31 1.1-.67 2.18-1 3.28q-2.62 9.5-4.77 19.17c-.43 1.9-.78 3.82-1.18 5.72-1 4.62-1.87 9.26-2.68 13.93-.4 2.37-.77 4.76-1.13 7.15q-1 6.48-1.79 13c-.29 2.44-.58 4.88-.83 7.34-.46 4.6-.82 9.22-1.13 13.85-.15 2.16-.33 4.3-.44 6.47-.34 6.77-.56 13.57-.56 20.42 0 163.13 98.8 307 246.91 384.07q20.44 10.62 42.1 19.54 10.85 4.46 22 8.45a545.54 545.54 0 0 0 168.47 31.6c8.22.24 16.4.27 24.54.16 2.75 0 5.47-.2 8.21-.28 5.38-.15 10.77-.31 16.11-.62 3.27-.19 6.5-.49 9.76-.73 4.77-.36 9.55-.73 14.29-1.21 3.47-.35 6.91-.79 10.36-1.21 4.48-.54 9-1.1 13.41-1.75 3.54-.51 7.07-1.1 10.59-1.68 4.31-.72 8.6-1.46 12.86-2.28q5.36-1 10.66-2.15 6.27-1.33 12.46-2.79c3.55-.84 7.09-1.7 10.6-2.61 4.09-1 8.15-2.17 12.19-3.32 3.48-1 7-2 10.41-3 1.27-.39 2.58-.72 3.85-1.12l-.09-.09c193.28-60.54 333.6-224.62 333.6-420.6z" fill="url(#B)"/><path d="m2579.44 704.14c0 253.55-233.29 452.28-511.18 444.16-267.54-7.82-477.21-205.83-477.21-442.53s209.67-435.41 477.21-444.11c277.89-9.04 511.18 188.92 511.18 442.48z" fill="url(#C)"/><path d="m1872.89 939.86q-24.51-.42-42.62-6.07v-62.57a136.08 136.08 0 0 0 34 5.25q23.85.27 34.18-15.1t10.31-48.37v-334.58l73.4-1.73v336.31q0 62.92-27.81 95.46t-81.46 31.4z" fill="#fff"/><path d="m2340.21 794.54q0 58.58-42 91.78-41.76 33-115.3 31.88-67.11-1-118-27.18v-83.19q41.83 19.33 71.1 27.42t53.8 8.3q29.44.26 45.28-11t15.91-33.98a37.88 37.88 0 0 0 -7-22.47q-7-9.86-20.47-19t-54.69-28.91q-38.41-18.25-57.44-35a129.69 129.69 0 0 1 -30.4-38.87q-11.29-22.19-11.3-51.92 0-56.08 37.24-88.89 37.44-33 104.23-34.57a245.52 245.52 0 0 1 63.27 6.49 431.56 431.56 0 0 1 63.66 21.06l-29.49 71.69q-34.35-13.63-56.65-18.86a178.74 178.74 0 0 0 -43.69-4.86q-25.39.42-38.9 12.59t-13.49 31.36c0 8 1.82 14.87 5.45 20.76s9.43 11.56 17.38 17 26.86 15.29 56.81 29.51q59.76 28.44 82.22 57.45t22.47 71.41z" fill="#fff"/><path d="m2189.11 1038c-60.3-132.76.67-255.43-80.75-340.58-81.79-85.53-186.68-5.58-297.87-74-42.52-26.17-89.5-76.25-124.22-179.55-59.89 73.52-95.22 164.18-95.22 262 0 236.7 209.67 434.71 477.21 442.53a545.23 545.23 0 0 0 179.4-24.55 305.36 305.36 0 0 1 -58.55-85.85z" fill="url(#D)" opacity=".2"/></svg>