<svg viewBox="0 0 155.86 219.8" xmlns="http://www.w3.org/2000/svg"><path d="m0 42.11h155.86l-14.31 159.05-63.62 18.64-63.25-18.45z" fill="#0170ba"/><path d="m59.67.06-27.95-.02.05 28.91h27.9v-6.93l-19.95-.01v-14.02h19.95z"/><path d="m91.71 0-27.99.01.02 16.97h20.97l.03 6.03h-21.02v5.94h27.99v-16.91l-21.02-.04.04-5.01 20.98.01z"/><path d="m124.71.02-27.99.01.02 16.96h20.97l.03 6.04h-21.02v5.94h27.99v-16.92l-21.02-.03.04-5.01h20.98z"/><path d="m103.48 132.32-24.79-.1v33.87l23.66-7.8z" fill="#29a9df"/><path d="m78.69 55.01v19h51.05l-2.01 18.92-43.13 20.19h41.75l-4.66 60.84-43 12.07v19.7l51.05-13.8 11.98-136.91z" fill="#29a9df"/><path d="m24.72 74.01 1.82 16.94 50.69.28-48.57 21.89 1.69 18.91 48.34.19v-58.21z" fill="#cfcfcf"/><path d="m77.93 166.34-25.55-5.65-1.13-15.81-19.06.14 2.12 29.51 43.62 11.72.76-.22v-19.94z" fill="#cfcfcf"/><path d="m126.35 113.12h-41.75l43.13-20.19 2.01-18.92h-51.05v58.21l24.79.1-1.13 25.97-23.66 7.8v19.94l43-12.07z" fill="#fff"/></svg>