<svg viewBox="0 0 165.84 234.92" xmlns="http://www.w3.org/2000/svg"><path d="m0 45.85h165.84l-15.22 169.24-67.7 19.83-67.3-19.63z" fill="#cf5731"/><g fill="#020101"><path d="m17.79 0h10.21v10.54h10.02v-10.54h10.31v31.62h-10.26v-10.54l-9.93.05.05 10.49h-10.4z"/><path d="m53.13 0h29.08v10.54h-9.27l-.05 21.08h-10.49l-.1-21.13-9.17.05z"/><path d="m86.96 0h10.97l6.77 11.29 6.97-11.29h10.87v31.62h-10.35l-.1-15.81-7.34 11.39-7.48-11.39.09 15.81h-10.4z"/><path d="m128 0h10.3v21.41h14.87v10.21h-25.17z"/></g><path d="m55.15 123.06h28.58v-20.98h-30.65z" fill="none"/><path d="m108.04 143.96-24.31.12v33.03l21.3-5.86z" fill="#dc6d36"/><path d="m83.73 59.57v21.71h50.57l-1.69 20.8h-48.88v20.98h47.09l-5.65 64.38-41.44 11.69v20.82l54.32-14.68 12.74-145.68z" fill="#dc6d36"/><path d="m82.44 177.46-23.15-6.4-1.88-16.75-20.9.19 3.02 32.94 42.91 12.05 1.29-.36v-22.02z" fill="#f4f4f4"/><path d="m55.15 123.06-2.07-20.98h30.65v-20.8h-53.62l5.46 63.05 48.16-.25v-21.02z" fill="#f4f4f4"/><path d="m130.82 123.06h-47.09v21.02l24.31-.12-3.01 27.29-21.3 5.86v22.02l41.44-11.69z" fill="#fef6f7"/><path d="m132.61 102.08 1.69-20.8h-50.57v20.8z" fill="#fef6f7"/></svg>