<svg enable-background="new 0 0 267.1 249.8" viewBox="0 0 267.1 249.8" xmlns="http://www.w3.org/2000/svg"><path d="m266.5 41.7-118.8 205.6c-1.4 2.4-4.5 3.2-6.8 1.8-.7-.4-1.3-1-1.8-1.8l-138.4-239.8c-.9-1.6-.9-3.7.2-5.3.9-1.4 2.4-2.2 4.1-2.2h132.1c2.8 0 5 2.2 5 5v24.2c0 2.8 2.2 5 5 5h35c2.8 0 5 2.3 5 5 0 .8-.2 1.7-.6 2.4l-39.3 68.1c-1.4 2.4-4.5 3.2-6.8 1.8-.7-.4-1.3-1-1.8-1.8l-42.3-73c-.9-1.5-2.5-2.5-4.3-2.5l-29.7-.3c-2.8 0-5 2.2-5 5 0 .9.2 1.7.6 2.5l66.7 115.5 4.4 7.6 8.6 15c1.4 2.4 4.5 3.2 6.8 1.8.7-.4 1.4-1 1.8-1.8l5.9-10.2 7.1-12.3 69.4-120.2c.9-1.5 2.5-2.5 4.3-2.5h29.1c2.8 0 5 2.3 5 5 .1.8-.1 1.7-.5 2.4z" fill="#1d1d1b"/></svg>