<?xml version="1.0" encoding="utf-8"?>
<!-- Generator: Adobe Illustrator 26.1.0, SVG Export Plug-In . SVG Version: 6.00 Build 0)  -->
<svg version="1.1" id="Calque_1" xmlns="http://www.w3.org/2000/svg" xmlns:xlink="http://www.w3.org/1999/xlink" x="0px" y="0px"
	 viewBox="0 0 267.1 249.8" style="enable-background:new 0 0 267.1 249.8;" xml:space="preserve">
<style type="text/css">
	.st0{fill:#1D1D1B;}
</style>
<g id="Calque_2_00000140000469931431661640000017841355751708774311_">
	<g id="Calque_2-2">
		<path class="st0" d="M266.5,41.7L147.7,247.3c-1.4,2.4-4.5,3.2-6.8,1.8c-0.7-0.4-1.3-1-1.8-1.8L0.7,7.5c-0.9-1.6-0.9-3.7,0.2-5.3
			C1.8,0.8,3.3,0,5,0h132.1c2.8,0,5,2.2,5,5v24.2c0,2.8,2.2,5,5,5h35c2.8,0,5,2.3,5,5c0,0.8-0.2,1.7-0.6,2.4l-39.3,68.1
			c-1.4,2.4-4.5,3.2-6.8,1.8c-0.7-0.4-1.3-1-1.8-1.8L96.3,36.7c-0.9-1.5-2.5-2.5-4.3-2.5l-29.7-0.3c-2.8,0-5,2.2-5,5
			c0,0.9,0.2,1.7,0.6,2.5l66.7,115.5l4.4,7.6l8.6,15c1.4,2.4,4.5,3.2,6.8,1.8c0.7-0.4,1.4-1,1.8-1.8l5.9-10.2l7.1-12.3l69.4-120.2
			c0.9-1.5,2.5-2.5,4.3-2.5h29.1c2.8,0,5,2.3,5,5C267.1,40.1,266.9,41,266.5,41.7z"/>
	</g>
</g>
</svg>
