<svg height="512pt" preserveAspectRatio="xMidYMid meet" viewBox="0 0 512 512" width="512pt" xmlns="http://www.w3.org/2000/svg"><path d="m2910 4600c-416-50-707-298-806-687-33-130-44-268-44-545v-238h-280-281l-25-25-25-25 3-375c3-344 4-376 21-392 16-16 45-18 302-21l285-3 2-865 3-866 28-24 28-24h374c258 0 382 4 399 11 14 7 30 25 36 42 7 20 10 312 10 878v848l323 3c177 2 330 7 340 12 39 19 42 42 45 356 4 361 0 423-33 456l-24 24h-326-326l3 273c3 267 3 273 27 311 16 25 40 46 70 59 42 19 70 21 306 25 290 4 297 6 314 69 14 51 14 616 0 666-18 65-33 67-381 66-167-1-332-5-368-9z" transform="matrix(.1 0 0 -.1 0 512)"/></svg>