<?xml version="1.0" encoding="UTF-8"?><svg xmlns="http://www.w3.org/2000/svg" viewBox="0 0 165.84 234.92"><defs><style>.d{fill:none;}.e{fill:#020101;}.f{fill:#f4f4f4;}.g{fill:#fef6f7;}.h{fill:#cf5731;}.i{fill:#dc6d36;}</style></defs><g id="a"/><g id="b"><g id="c"><polygon class="h" points="0 45.85 165.84 45.85 150.62 215.09 82.92 234.92 15.62 215.29 0 45.85"/><polygon class="e" points="17.79 0 28 0 28 10.54 38.02 10.54 38.02 0 48.33 0 48.33 31.62 38.07 31.62 38.07 21.08 28.14 21.13 28.19 31.62 17.79 31.62 17.79 0"/><polygon class="e" points="53.13 0 82.21 0 82.21 10.54 72.94 10.54 72.89 31.62 62.4 31.62 62.3 10.49 53.13 10.54 53.13 0"/><polygon class="e" points="86.96 0 97.93 0 104.7 11.29 111.67 0 122.54 0 122.54 31.62 112.19 31.62 112.09 15.81 104.75 27.2 97.27 15.81 97.36 31.62 86.96 31.62 86.96 0"/><polygon class="e" points="128 0 138.3 0 138.3 21.41 153.17 21.41 153.17 31.62 128 31.62 128 0"/><g><polygon class="d" points="55.15 123.06 83.73 123.06 83.73 102.08 53.08 102.08 55.15 123.06"/><polygon class="i" points="108.04 143.96 83.73 144.08 83.73 177.11 105.03 171.25 108.04 143.96"/><polygon class="i" points="83.73 59.57 83.73 81.28 134.3 81.28 132.61 102.08 83.73 102.08 83.73 123.06 130.82 123.06 125.17 187.44 83.73 199.13 83.73 219.95 138.05 205.27 150.79 59.59 83.73 59.57"/><polygon class="f" points="82.44 177.46 59.29 171.06 57.41 154.31 36.51 154.5 39.53 187.44 82.44 199.49 83.73 199.13 83.73 177.11 82.44 177.46"/><polygon class="f" points="55.15 123.06 53.08 102.08 83.73 102.08 83.73 81.28 30.11 81.28 35.57 144.33 83.73 144.08 83.73 123.06 55.15 123.06"/><polygon class="g" points="130.82 123.06 83.73 123.06 83.73 144.08 108.04 143.96 105.03 171.25 83.73 177.11 83.73 199.13 125.17 187.44 130.82 123.06"/><polygon class="g" points="132.61 102.08 134.3 81.28 83.73 81.28 83.73 102.08 132.61 102.08"/></g></g></g></svg>