<svg height="512pt" preserveAspectRatio="xMidYMid meet" viewBox="0 0 512 512" width="512pt" xmlns="http://www.w3.org/2000/svg"><g transform="matrix(.1 0 0 -.1 0 512)"><path d="m1030 5099c-382-80-698-314-879-651-69-127-114-259-141-412-6-39-10-551-10-1479 0-1394 0-1421 21-1520 55-272 184-507 379-690 180-169 388-276 637-326 99-21 126-21 1523-21s1424 0 1523 21c272 55 507 184 690 379 169 180 276 388 326 637 21 99 21 126 21 1520 0 928-4 1440-10 1479-72 415-316 754-679 942-116 60-212 94-348 121-99 21-124 21-1530 20-1386 0-1431-1-1523-20zm3015-437c314-88 535-311 617-622l23-85v-1395-1395l-23-85c-83-313-309-539-622-622l-85-23h-1395-1395l-85 23c-313 83-539 309-622 622l-23 85v1395 1395l23 85c89 337 344 573 685 635 58 11 350 13 1447 12l1375-2z"/><path d="m3829 4247c-32-13-68-33-82-44-157-123-165-363-17-497 51-46 83-62 156-76 146-29 289 44 353 179 37 79 37 203 2 276-32 63-93 124-156 155-73 36-181 39-256 7z"/><path d="m2333 3825c-183-34-394-125-540-234-98-73-234-214-295-306-101-153-173-332-203-502-19-114-19-332 0-446 44-248 161-480 335-661 192-200 440-334 707-381 114-19 332-19 446 0 527 93 949 515 1042 1042 19 114 19 332 0 446-30 171-102 349-204 502-60 92-197 234-292 305-151 112-360 202-546 235-107 18-348 18-450 0zm432-445c303-78 534-308 616-615 17-62 22-109 22-205s-5-143-22-205c-82-307-309-533-616-616-113-31-297-31-410 0-307 83-534 309-616 616-30 112-30 298 0 410 122 457 578 730 1026 615z"/></g></svg>