<?xml version="1.0" encoding="UTF-8"?><svg xmlns="http://www.w3.org/2000/svg" viewBox="0 0 267.13 249.79"><defs><style>.f{fill:#fbaf28;}.g{fill:#1d1d1b;}</style></defs><g id="a"/><g id="b"><g id="c"><rect class="f" width="267.13" height="249.79"/><g id="d"><g id="e"><path class="g" d="M241.57,57.27l-96.5,167.12c-1.14,1.93-3.63,2.58-5.56,1.44-.6-.35-1.09-.85-1.44-1.44L25.55,29.45c-.77-1.34-.71-2.99,.15-4.28,.75-1.13,2.02-1.8,3.37-1.79h107.36c2.24,0,4.06,1.82,4.06,4.06v19.71c0,2.24,1.82,4.06,4.06,4.06h28.45c2.24,.02,4.05,1.85,4.03,4.1,0,.69-.19,1.36-.53,1.96l-31.95,55.35c-1.14,1.93-3.63,2.58-5.56,1.44-.6-.35-1.09-.85-1.44-1.44l-34.31-59.44c-.72-1.24-2.04-2-3.47-2.02l-24.1-.28c-2.24,0-4.06,1.82-4.06,4.07,0,.7,.18,1.39,.53,2l54.23,93.91,3.57,6.19,7.02,12.19c1.13,1.94,3.62,2.59,5.56,1.45,.6-.35,1.1-.85,1.45-1.45l4.8-8.32,5.77-10.01,56.39-97.69c.73-1.25,2.06-2.02,3.5-2.02h23.62c2.24,.02,4.05,1.85,4.03,4.1,0,.69-.19,1.36-.53,1.96Z"/></g></g></g></g></svg>