<svg xmlns="http://www.w3.org/2000/svg" viewBox="0 0 500 500"><defs><style>.cls-1{fill:none;}.cls-2{fill:#fbaf28;}.cls-10,.cls-17,.cls-3,.cls-5{fill:#d1ba32;}.cls-4{fill:#406080;}.cls-5{opacity:0.4;}.cls-16,.cls-6{fill:#f9e77d;}.cls-7{fill:#c48062;}.cls-8{fill:#fff;}.cls-9{fill:#285680;}.cls-10{opacity:0.1;}.cls-11{fill:#fdd794;}.cls-12{fill:#01a4ca;}.cls-13{fill:#7b9fc0;}.cls-14{fill:#407380;}.cls-15{fill:#a5bdc3;}.cls-16,.cls-17{opacity:0.2;}.cls-18{fill:#5885af;}</style></defs><g id="Calque_2" data-name="Calque 2"><g id="BACKGROUND"><rect class="cls-1" width="500" height="500"/></g><g id="OBJECTS"><path class="cls-2" d="M470.49,422.14a8.79,8.79,0,0,1-8.79,8.79H38.3a8.79,8.79,0,0,1-8.79-8.79h0a8.8,8.8,0,0,1,8.79-8.79H461.7a8.8,8.8,0,0,1,8.79,8.79Z"/><rect class="cls-3" x="189.91" y="414.6" width="103.2" height="6.34" rx="1.15"/><path class="cls-4" d="M259.88,384.68H223.14c0,16.69-25.1,30.76-25.1,30.76H285S259.88,401.37,259.88,384.68Z"/><path class="cls-5" d="M259.88,384.68H233a79,79,0,0,0,30,30.76h22S259.88,401.37,259.88,384.68Z"/><rect class="cls-3" x="85.52" y="194.19" width="311.98" height="190.49" rx="2"/><rect class="cls-6" x="97.31" y="204.69" width="288.39" height="169.49" rx="2"/><path class="cls-7" d="M385.71,218.44V206.69a2,2,0,0,0-2-2H99.31a2,2,0,0,0-2,2v11.75Z"/><circle class="cls-8" cx="118.12" cy="211.57" r="2.88"/><circle class="cls-8" cx="106.12" cy="211.57" r="2.88"/><circle class="cls-8" cx="130.12" cy="211.57" r="2.88"/><rect class="cls-9" x="119.08" y="229.09" width="244.86" height="49.35"/><rect class="cls-9" x="119.08" y="286.44" width="103.16" height="32.88"/><rect class="cls-9" x="119.08" y="326.59" width="103.16" height="4.85"/><rect class="cls-9" x="119.08" y="336.59" width="103.16" height="4.85"/><rect class="cls-9" x="119.08" y="346.59" width="103.16" height="4.85"/><rect class="cls-9" x="119.08" y="356.59" width="103.16" height="4.85"/><rect class="cls-9" x="231.51" y="286.44" width="51" height="55.01"/><rect class="cls-9" x="230.93" y="346.59" width="51.5" height="4.85"/><rect class="cls-9" x="230.93" y="356.59" width="51.5" height="4.85"/><rect class="cls-9" x="293.11" y="286.44" width="70.83" height="32.88"/><rect class="cls-9" x="293.11" y="326.59" width="69.59" height="4.85"/><rect class="cls-9" x="293.11" y="336.59" width="69.59" height="4.85"/><rect class="cls-9" x="293.11" y="346.59" width="69.59" height="4.85"/><rect class="cls-9" x="293.11" y="356.59" width="69.59" height="4.85"/><path class="cls-10" d="M397.5,382.68V196.19a2,2,0,0,0-2-2H368.44c-8.29,148.48-158.6,190.49-158.6,190.49H395.5A2,2,0,0,0,397.5,382.68Z"/><path class="cls-3" d="M111.58,323a2.9,2.9,0,0,0-2.6,1.9l-3.81,12.15a2.88,2.88,0,0,1-2.59,1.91H60.91a1.62,1.62,0,0,0-1.65,2l12.29,68a2.5,2.5,0,0,0,2.36,2h66a2.39,2.39,0,0,0,2.29-2l12.42-84a1.68,1.68,0,0,0-1.71-2Z"/><polygon class="cls-8" points="140.44 388.77 73.44 388.77 73.44 293.77 127.58 293.77 140.44 306.77 140.44 388.77"/><polygon class="cls-11" points="127.58 293.77 140.44 306.77 127.58 306.77 127.58 293.77"/><rect class="cls-12" x="79.6" y="318.94" width="54.67" height="1.57"/><rect class="cls-12" x="79.6" y="325.22" width="54.67" height="1.57"/><rect class="cls-12" x="79.6" y="331.51" width="54.67" height="1.57"/><rect class="cls-12" x="79.6" y="337.8" width="54.67" height="1.57"/><rect class="cls-12" x="79.6" y="344.09" width="54.67" height="1.57"/><rect class="cls-12" x="79.6" y="350.37" width="54.67" height="1.57"/><path class="cls-13" d="M88.84,308.28A5.25,5.25,0,0,1,94.42,303a5.36,5.36,0,0,1,4.36,1.92L97,306.57a3,3,0,0,0-2.39-1.19,2.9,2.9,0,0,0,0,5.8A3,3,0,0,0,97,310l1.82,1.65a5.36,5.36,0,0,1-4.36,1.91A5.24,5.24,0,0,1,88.84,308.28Z"/><path class="cls-13" d="M110.76,313.35l0-5.38-2.6,4.38h-1.28l-2.59-4.23v5.23H101.6V303.21H104l3.56,5.85,3.48-5.85h2.36l0,10.14Z"/><path class="cls-13" d="M116.26,312.44l.95-2.12a6.31,6.31,0,0,0,3.34,1c1.19,0,1.66-.33,1.66-.83,0-1.6-5.77-.43-5.77-4.2,0-1.81,1.48-3.29,4.49-3.29a7.59,7.59,0,0,1,3.68.89l-.88,2.13a5.9,5.9,0,0,0-2.81-.78c-1.21,0-1.64.4-1.64.91,0,1.55,5.75.39,5.75,4.13,0,1.76-1.48,3.27-4.49,3.27A8.07,8.07,0,0,1,116.26,312.44Z"/><path class="cls-4" d="M111.58,333a2.9,2.9,0,0,0-2.6,1.9l-3.81,12.15a2.88,2.88,0,0,1-2.59,1.91H60.91a1.62,1.62,0,0,0-1.65,2l12.29,68a2.5,2.5,0,0,0,2.36,2h66a2.39,2.39,0,0,0,2.29-2l12.42-84a1.68,1.68,0,0,0-1.71-2Z"/><path class="cls-5" d="M142.2,419l12.42-84a1.68,1.68,0,0,0-1.71-2h-4c-6.71,63.83-55,79.62-77.78,83.53l.43,2.41a2.5,2.5,0,0,0,2.36,2h66A2.39,2.39,0,0,0,142.2,419Z"/><rect class="cls-14" x="311.36" y="329.45" width="124.11" height="91.2" rx="1.92"/><rect class="cls-15" x="316.23" y="333.03" width="114.36" height="77.32" rx="1.77"/><path class="cls-4" d="M430.6,415.12a.68.68,0,0,1-.68.67h-113a.68.68,0,0,1-.68-.67h0a.68.68,0,0,1,.68-.68h113a.68.68,0,0,1,.68.68Z"/><path class="cls-13" d="M392.17,415.12a.68.68,0,0,1-.68.67H316.91a.68.68,0,0,1-.68-.67h0a.68.68,0,0,1,.68-.68h74.58a.68.68,0,0,1,.68.68Z"/><path class="cls-13" d="M393.89,415.19a2.64,2.64,0,1,1-2.64-2.64A2.65,2.65,0,0,1,393.89,415.19Z"/><path class="cls-16" d="M403.84,372.77a30.43,30.43,0,1,1-30.43-30.43A30.42,30.42,0,0,1,403.84,372.77Z"/><path class="cls-6" d="M397.19,372.77A23.78,23.78,0,1,1,373.41,349,23.77,23.77,0,0,1,397.19,372.77Z"/><polygon class="cls-4" points="368.72 362.8 368.72 382.73 381.7 372.98 368.72 362.8"/><path class="cls-17" d="M433.55,420.65a1.94,1.94,0,0,0,1.92-1.93V331.37a1.93,1.93,0,0,0-1.92-1.92H422.28c0,60.49-31.18,83.31-48,91.2Z"/><rect class="cls-8" x="222.5" y="140.71" width="122.94" height="81.59" rx="0.98"/><rect class="cls-4" x="226.97" y="145.48" width="113.99" height="72.05" rx="0.9"/><path class="cls-6" d="M316.14,170.12a6.08,6.08,0,0,0-9.46,0l-32.11,37.15a6.08,6.08,0,0,1-9.46,0l-14.61-16.9a6.09,6.09,0,0,0-9.45,0L227,206.65v10.93a.9.9,0,0,0,.9.89h112.2a.9.9,0,0,0,.9-.89V198.85Z"/><path class="cls-6" d="M278.91,167a11.83,11.83,0,1,1-11.83-11.83A11.83,11.83,0,0,1,278.91,167Z"/><path class="cls-10" d="M344.46,222.3a1,1,0,0,0,1-1V141.69a1,1,0,0,0-1-1H330.12c-2.59,47.81-22,70.7-38.61,81.59Z"/><rect class="cls-3" x="156.64" y="240.09" width="83.58" height="60.26" rx="1.07"/><path class="cls-4" d="M240.22,247.41v-6.25a1.07,1.07,0,0,0-1.06-1.07H157.71a1.07,1.07,0,0,0-1.07,1.07v6.25Z"/><path class="cls-8" d="M169.26,243.75a1.54,1.54,0,1,1-1.54-1.53A1.54,1.54,0,0,1,169.26,243.75Z"/><path class="cls-8" d="M162.87,243.75a1.54,1.54,0,1,1-1.54-1.53A1.54,1.54,0,0,1,162.87,243.75Z"/><path class="cls-8" d="M175.65,243.75a1.54,1.54,0,1,1-1.53-1.53A1.54,1.54,0,0,1,175.65,243.75Z"/><rect class="cls-8" x="180.32" y="262.02" width="53.93" height="2.17"/><rect class="cls-9" x="162.61" y="255.02" width="15.99" height="2.17"/><rect class="cls-9" x="162.61" y="269.02" width="8.46" height="2.17"/><rect class="cls-9" x="162.61" y="276.02" width="15.99" height="2.17"/><rect class="cls-9" x="162.61" y="283.02" width="12.44" height="2.17"/><rect class="cls-8" x="187.75" y="255.02" width="31.05" height="2.17"/><rect class="cls-9" x="162.61" y="262.02" width="12.44" height="2.17"/><rect class="cls-8" x="174.66" y="269.02" width="36.69" height="2.17"/><rect class="cls-8" x="187.75" y="276.02" width="31.05" height="2.17"/><rect class="cls-8" x="180.32" y="283.02" width="53.93" height="2.17"/><rect class="cls-9" x="162.61" y="290.02" width="8.46" height="2.17"/><rect class="cls-8" x="174.66" y="290.02" width="36.69" height="2.17"/><path class="cls-5" d="M240.22,241.16a1.07,1.07,0,0,0-1.06-1.07h-20c-.48,37.27-26,54.37-37.74,60.26h57.73a1.07,1.07,0,0,0,1.06-1.06Z"/><rect class="cls-3" x="297.5" y="208.96" width="73.58" height="40.26" rx="1.07"/><path class="cls-4" d="M371.08,216.28V210A1.07,1.07,0,0,0,370,209H298.57A1.07,1.07,0,0,0,297.5,210v6.25Z"/><path class="cls-8" d="M310.12,212.62a1.54,1.54,0,1,1-1.53-1.53A1.54,1.54,0,0,1,310.12,212.62Z"/><path class="cls-8" d="M303.73,212.62a1.54,1.54,0,1,1-1.53-1.53A1.54,1.54,0,0,1,303.73,212.62Z"/><path class="cls-8" d="M316.51,212.62a1.54,1.54,0,1,1-1.53-1.53A1.54,1.54,0,0,1,316.51,212.62Z"/><path class="cls-9" d="M336,224.18q-2.52,7.6-5,15.22c-.33,1,1.25,1.43,1.58.43q2.52-7.61,5-15.21c.33-1-1.25-1.43-1.58-.44Z"/><path class="cls-9" d="M330,234.87q-2.07-1.44-4.16-2.86l4.16-2.86c.87-.59.05-2-.83-1.41L324,231.3a.83.83,0,0,0,0,1.42l5.18,3.56C330,236.88,330.83,235.46,330,234.87Z"/><path class="cls-9" d="M338.63,234.87l4.15-2.86-4.15-2.86c-.87-.59-.05-2,.82-1.41l5.19,3.56a.83.83,0,0,1,0,1.42l-5.19,3.56C338.58,236.88,337.76,235.46,338.63,234.87Z"/><path class="cls-5" d="M370,249.22a1.07,1.07,0,0,0,1.06-1.07V210A1.07,1.07,0,0,0,370,209H354c-1.21,23.66-14.71,35-25.82,40.26Z"/><path class="cls-8" d="M407.16,314.4l-1.1,2.68L388.82,310a28.74,28.74,0,1,0-1.26,3.07l17.24,7.09-1.1,2.67,17,7,3.46-8.43Zm-23-4.52a24.31,24.31,0,1,1-13.25-31.73A24.33,24.33,0,0,1,384.17,309.88Z"/><path class="cls-8" d="M353.86,283.16a5.33,5.33,0,1,0,7,2.86A5.33,5.33,0,0,0,353.86,283.16Z"/><path class="cls-13" d="M449.61,199.64h-4a19.73,19.73,0,0,0-3.72-9l2.82-2.81a1,1,0,0,0,0-1.41l-2.64-2.65a1,1,0,0,0-1.42,0l-2.81,2.82a19.72,19.72,0,0,0-9-3.71v-4a1,1,0,0,0-1-1h-3.73a1,1,0,0,0-1,1v4a19.72,19.72,0,0,0-9,3.71l-2.82-2.82a1,1,0,0,0-1.41,0l-2.64,2.65a1,1,0,0,0,0,1.41l2.81,2.81a19.72,19.72,0,0,0-3.71,9h-4a1,1,0,0,0-1,1v3.74a1,1,0,0,0,1,1h4a19.68,19.68,0,0,0,3.71,9l-2.81,2.82a1,1,0,0,0,0,1.41l2.64,2.64a1,1,0,0,0,1.41,0l2.82-2.81a19.68,19.68,0,0,0,9,3.71v4a1,1,0,0,0,1,1h3.73a1,1,0,0,0,1-1v-4a19.72,19.72,0,0,0,9-3.71l2.81,2.81a1,1,0,0,0,1.42,0l2.64-2.64a1,1,0,0,0,0-1.41l-2.82-2.82a19.7,19.7,0,0,0,3.72-9h4a1,1,0,0,0,1-1v-3.74A1,1,0,0,0,449.61,199.64ZM426,217a14.5,14.5,0,1,1,14.5-14.5A14.5,14.5,0,0,1,426,217Z"/><path class="cls-13" d="M409.68,161.13h-3.15a15.63,15.63,0,0,0-2.95-7.11l2.23-2.23a.8.8,0,0,0,0-1.13l-2.09-2.09a.79.79,0,0,0-1.12,0l-2.23,2.23a15.67,15.67,0,0,0-7.11-2.94V144.7a.8.8,0,0,0-.8-.79h-3a.8.8,0,0,0-.79.79v3.16a15.67,15.67,0,0,0-7.11,2.94l-2.23-2.23a.79.79,0,0,0-1.12,0l-2.1,2.09a.8.8,0,0,0,0,1.13l2.24,2.23a15.53,15.53,0,0,0-2.95,7.11h-3.16a.8.8,0,0,0-.79.79v3a.79.79,0,0,0,.79.79h3.16a15.53,15.53,0,0,0,2.95,7.11L376.15,175a.79.79,0,0,0,0,1.12l2.1,2.09a.79.79,0,0,0,1.12,0L381.6,176a15.51,15.51,0,0,0,7.11,2.94v3.16a.79.79,0,0,0,.79.79h3a.79.79,0,0,0,.8-.79v-3.16a15.56,15.56,0,0,0,7.11-2.94l2.23,2.23a.79.79,0,0,0,1.12,0l2.09-2.09a.79.79,0,0,0,0-1.12l-2.23-2.23a15.67,15.67,0,0,0,2.95-7.12h3.15a.79.79,0,0,0,.8-.79v-3A.8.8,0,0,0,409.68,161.13ZM391,171.28a7.88,7.88,0,1,1,7.88-7.88A7.88,7.88,0,0,1,391,171.28Z"/><path class="cls-13" d="M185.28,418.4a4.18,4.18,0,0,1-4.19,4.29H179a4.19,4.19,0,0,1-4.19-4.29l1.52-65.24c.05-2.36,1.73-4.29,3.73-4.29s3.67,1.93,3.72,4.29Z"/><path class="cls-18" d="M179,422.69h2.11a4.13,4.13,0,0,0,2.07-.56l-.72-30.91a2.43,2.43,0,1,0-4.81,0l-.72,30.91A4.19,4.19,0,0,0,179,422.69Z"/><path class="cls-13" d="M188.86,325.67v12L180,346.41l-8.83-8.71v-12a19.18,19.18,0,1,0,17.65,0Z"/><path class="cls-18" d="M180,358.14a23.39,23.39,0,0,1-17.7-8.06,19.18,19.18,0,0,0,35.39,0A23.39,23.39,0,0,1,180,358.14Z"/><rect class="cls-13" x="115.89" y="148.43" width="82.86" height="46.15" rx="2.74"/><path class="cls-18" d="M196,148.43H118.63a2.63,2.63,0,0,0-1.09.23l37.24,27a4.62,4.62,0,0,0,5.07,0l37.24-27A2.62,2.62,0,0,0,196,148.43Z"/><path class="cls-10" d="M196,148.43h-14c-3.44,28.68-25.91,40.94-42.91,46.14H196a2.75,2.75,0,0,0,2.74-2.74V151.17A2.75,2.75,0,0,0,196,148.43Z"/><path class="cls-6" d="M159.29,110.63c-7.44,15.33-24.06,18.74-24.06,18.74,3.19,27.27,24.06,32.95,24.06,32.95s20.86-5.68,24.05-32.95C183.34,129.37,166.72,126,159.29,110.63Z"/><path class="cls-9" d="M159.29,122.79c-4.53,9.35-14.67,11.42-14.67,11.42,1.95,16.62,14.67,20.08,14.67,20.08S172,150.83,174,134.21C174,134.21,163.82,132.14,159.29,122.79Z"/><path class="cls-3" d="M165.68,134.23l-6.61,8.19-4.24-3.22c-1.33-1-2.62,1.24-1.31,2.23l5.11,3.89a1.27,1.27,0,0,0,1.57-.21l7.31-9.05C168.55,134.77,166.73,132.93,165.68,134.23Z"/><path class="cls-10" d="M145.48,153.19a32.61,32.61,0,0,0,13.81,9.13s20.86-5.68,24.05-32.95a38.2,38.2,0,0,1-11-4.65C167.63,141.65,153.81,149.75,145.48,153.19Z"/><path class="cls-8" d="M93.43,234.13a13.6,13.6,0,0,0-4.25.67,19,19,0,0,0-37.5,4.63,21,21,0,0,0,.13,2.26,10.64,10.64,0,0,0-2.05-.2,10.28,10.28,0,0,0,0,20.56H93.43a14,14,0,0,0,0-27.92Z"/><path class="cls-17" d="M100.55,236.1a13.93,13.93,0,0,1-12.57,20H44.31a10.15,10.15,0,0,1-4.24-.93,10.27,10.27,0,0,0,9.69,6.89H93.43a13.95,13.95,0,0,0,7.12-26Z"/><polygon class="cls-6" points="84.19 244.13 79.85 238.59 75.5 244.13 78.15 244.13 78.15 248.5 81.55 248.5 81.55 244.13 84.19 244.13"/><polygon class="cls-6" points="60.68 243.82 65.03 249.36 69.37 243.82 66.73 243.82 66.73 239.45 63.33 239.45 63.33 243.82 60.68 243.82"/><path class="cls-8" d="M346.8,127.79a13.3,13.3,0,0,0-4,.62,18,18,0,0,0-35.37,4.38,18.74,18.74,0,0,0,.13,2.13,9.43,9.43,0,0,0-1.93-.2,9.7,9.7,0,1,0,0,19.39H346.8a13.16,13.16,0,0,0,0-26.32Z"/><path class="cls-17" d="M353.52,129.64a13.15,13.15,0,0,1-11.87,18.85H300.47a9.7,9.7,0,0,1-4-.87,9.7,9.7,0,0,0,9.15,6.49H346.8a13.16,13.16,0,0,0,6.72-24.47Z"/><polygon class="cls-6" points="332.04 135.19 326.74 128.43 321.44 135.19 324.67 135.19 324.67 140.52 328.81 140.52 328.81 135.19 332.04 135.19"/><path class="cls-8" d="M439.59,267.08a8.86,8.86,0,0,0-2.79.44,12.5,12.5,0,0,0-24.63,3,12,12,0,0,0,.09,1.48,6.65,6.65,0,0,0-1.35-.13,6.75,6.75,0,0,0,0,13.5h28.68a9.17,9.17,0,0,0,0-18.33Z"/><path class="cls-17" d="M444.26,268.37a9.07,9.07,0,0,1,.91,4,9.16,9.16,0,0,1-9.17,9.16H407.33a6.8,6.8,0,0,1-2.78-.6,6.74,6.74,0,0,0,6.36,4.52h28.68a9.16,9.16,0,0,0,4.67-17Z"/><polygon class="cls-6" points="421.41 271.21 425.32 276.19 429.23 271.21 426.85 271.21 426.85 267.27 423.79 267.27 423.79 271.21 421.41 271.21"/></g></g></svg>