<svg xmlns="http://www.w3.org/2000/svg" xmlns:xlink="http://www.w3.org/1999/xlink" viewBox="0 0 2887.83 2800"><defs><style>.cls-1{fill:url(#linear-gradient);}.cls-2{fill:url(#linear-gradient-2);}.cls-3{isolation:isolate;}.cls-4{fill:#ebe9e2;}.cls-10,.cls-5{fill:#bbb374;}.cls-21,.cls-39,.cls-43,.cls-5{mix-blend-mode:multiply;}.cls-21,.cls-39,.cls-5{opacity:0.3;}.cls-6{clip-path:url(#clip-path);}.cls-12,.cls-13,.cls-16,.cls-18,.cls-7{mix-blend-mode:soft-light;}.cls-12,.cls-13,.cls-16,.cls-8{fill:#fff;}.cls-9{clip-path:url(#clip-path-2);}.cls-11{fill:#d3c87e;}.cls-13{opacity:0.48;}.cls-14{fill:url(#linear-gradient-5);}.cls-15{fill:url(#linear-gradient-6);}.cls-16{opacity:0.74;}.cls-17{fill:url(#linear-gradient-7);}.cls-18{opacity:0.5;}.cls-19{fill:url(#linear-gradient-8);}.cls-20{fill:url(#linear-gradient-9);}.cls-22{fill:url(#linear-gradient-10);}.cls-23{fill:url(#linear-gradient-11);}.cls-24{fill:url(#linear-gradient-12);}.cls-25{fill:url(#linear-gradient-13);}.cls-26{fill:url(#linear-gradient-14);}.cls-27{fill:url(#linear-gradient-15);}.cls-28{fill:#26202b;}.cls-29{fill:url(#linear-gradient-16);}.cls-30{fill:url(#linear-gradient-17);}.cls-31{fill:url(#linear-gradient-18);}.cls-32{fill:url(#linear-gradient-19);}.cls-33{fill:url(#linear-gradient-20);}.cls-34{fill:url(#linear-gradient-21);}.cls-35{fill:url(#linear-gradient-22);}.cls-36{fill:url(#linear-gradient-23);}.cls-37{fill:url(#linear-gradient-24);}.cls-38{fill:url(#linear-gradient-25);}.cls-39{fill:url(#linear-gradient-26);}.cls-40{fill:url(#linear-gradient-27);}.cls-41{fill:url(#linear-gradient-28);}.cls-42{fill:url(#linear-gradient-29);}.cls-43{opacity:0.2;}.cls-44{fill:url(#linear-gradient-30);}</style><linearGradient id="linear-gradient" x1="2228.99" y1="1727.49" x2="4951.83" y2="1755.48" gradientUnits="userSpaceOnUse"><stop offset="0" stop-color="#285780"/><stop offset="1" stop-color="#255680"/></linearGradient><linearGradient id="linear-gradient-2" x1="739.87" y1="1112.25" x2="3055.79" y2="1136.07" gradientUnits="userSpaceOnUse"><stop offset="0" stop-color="#e9b42d"/><stop offset="1" stop-color="#c99d50"/></linearGradient><clipPath id="clip-path"><path class="cls-1" d="M1508.61,2297.27c-156.26-210.36-87.3-535.7,36.43-591.13,64.35-28.82,116.89,27.3,179.44-11.77,69.3-43.28,39.06-133.57,97.15-293.68,30-82.73,84.43-232.75,189.83-259.46,104.53-26.49,155,94.69,269,72.41,107.82-21.07,103.7-137.43,246.75-200.15,13.3-5.84,163.81-69.67,247.26-.36,84.78,70.43,70.39,253.41-12.9,346.05-75.67,84.17-186,69-197.42,128.55-12.61,65.59,117.21,105.45,110.73,174.08-9.37,99.18-287.45,88.25-338.26,234.06-29.87,85.73,52.89,128,39,243.47-17.92,149.09-177.77,261.83-300.18,305.21C1898.07,2507.4,1644.05,2479.6,1508.61,2297.27Z"/></clipPath><clipPath id="clip-path-2"><path class="cls-2" d="M841.2,1973.59c-259.14,38.92-513.78-175-504.48-310.26,4.84-70.35,79.08-90.31,74-163.88-5.59-81.51-99.49-97.31-213.45-223.89-58.88-65.41-165.65-184-139.64-289.59,25.8-104.69,156.47-92.19,190.46-203.3C280.26,677.6,175.64,626.5,187.6,470.76c1.11-14.48,15.59-177.33,116-218.35,102-41.68,256.72,57.11,299.28,174.19C641.57,533,576.32,623.18,623.46,661.28c51.94,42,148.2-53.82,205.7-15.81,83.12,54.93-57.36,295.17,47.4,408.6,61.6,66.7,137.79,13.53,233.19,80.13,123.14,86,147.41,280,128.1,408.47C1209.86,1728.78,1065.82,1939.85,841.2,1973.59Z"/></clipPath><linearGradient id="linear-gradient-5" x1="140.57" y1="2592.82" x2="2765.02" y2="2592.82" gradientUnits="userSpaceOnUse"><stop offset="0.49" stop-color="#e3e0b3"/><stop offset="1" stop-color="#fff"/></linearGradient><linearGradient id="linear-gradient-6" x1="1879.14" y1="117.91" x2="233.2" y2="3409.8" gradientUnits="userSpaceOnUse"><stop offset="0" stop-color="#6c7871"/><stop offset="1" stop-color="#255680"/></linearGradient><linearGradient id="linear-gradient-7" x1="1167.27" y1="15.1" x2="1453.26" y2="1159.06" xlink:href="#linear-gradient-6"/><linearGradient id="linear-gradient-8" x1="1695.58" y1="821.77" x2="2140.17" y2="1713.94" gradientUnits="userSpaceOnUse"><stop offset="0" stop-color="#255680"/><stop offset="1" stop-color="#3d607f"/></linearGradient><linearGradient id="linear-gradient-9" x1="1957.03" y1="1407.77" x2="2388.86" y2="2208.69" xlink:href="#linear-gradient-2"/><linearGradient id="linear-gradient-10" x1="1838.44" y1="1461" x2="2257.95" y2="2302.85" xlink:href="#linear-gradient-2"/><linearGradient id="linear-gradient-11" x1="6493.16" y1="976.35" x2="6174.46" y2="2504.35" gradientTransform="translate(-5492.74)" xlink:href="#linear-gradient"/><linearGradient id="linear-gradient-12" x1="-4815.56" y1="2736.94" x2="-4720.12" y2="2736.94" gradientTransform="matrix(-1, 0.03, 0.03, 1, -4065.87, -19.91)" gradientUnits="userSpaceOnUse"><stop offset="0" stop-color="#255680"/><stop offset="1" stop-color="#26202b"/></linearGradient><linearGradient id="linear-gradient-13" x1="-671.36" y1="2546.65" x2="-637.14" y2="2546.65" gradientTransform="matrix(-1, 0, 0, 1, 93.9, 0)" gradientUnits="userSpaceOnUse"><stop offset="0" stop-color="#cfb933"/><stop offset="1" stop-color="#f9af2a"/></linearGradient><linearGradient id="linear-gradient-14" x1="-3264.82" y1="3899.01" x2="-3163.42" y2="3899.01" gradientTransform="matrix(-0.96, 0.27, 0.27, 0.96, -3044.9, -343.42)" xlink:href="#linear-gradient-12"/><linearGradient id="linear-gradient-15" x1="-976.44" y1="2535.36" x2="-934.17" y2="2535.36" xlink:href="#linear-gradient-13"/><linearGradient id="linear-gradient-16" x1="6382.81" y1="953.33" x2="6064.11" y2="2481.33" gradientTransform="translate(-5492.74)" xlink:href="#linear-gradient"/><linearGradient id="linear-gradient-17" x1="6108.73" y1="2260.13" x2="6229.69" y2="1685.61" gradientTransform="translate(-5492.74)" xlink:href="#linear-gradient"/><linearGradient id="linear-gradient-18" x1="6164.49" y1="907.8" x2="5845.79" y2="2435.8" gradientTransform="translate(-5492.74)" xlink:href="#linear-gradient"/><linearGradient id="linear-gradient-19" x1="6436.2" y1="1760.87" x2="6384.63" y2="1614.75" gradientTransform="translate(-5492.74)" xlink:href="#linear-gradient-8"/><linearGradient id="linear-gradient-20" x1="6210.91" y1="1549.17" x2="6229.82" y2="1679.82" gradientTransform="translate(-5492.74)" xlink:href="#linear-gradient-8"/><linearGradient id="linear-gradient-21" x1="-730.24" y1="1569.68" x2="-623.37" y2="1569.68" xlink:href="#linear-gradient-13"/><linearGradient id="linear-gradient-22" x1="-649.77" y1="1108.93" x2="-653.56" y2="1372.19" xlink:href="#linear-gradient-13"/><linearGradient id="linear-gradient-23" x1="-679.42" y1="1050" x2="-664.95" y2="1190.49" xlink:href="#linear-gradient-13"/><linearGradient id="linear-gradient-24" x1="6585.59" y1="1560.61" x2="6485.04" y2="1417.84" gradientTransform="translate(-5492.74)" xlink:href="#linear-gradient-12"/><linearGradient id="linear-gradient-25" x1="6392.72" y1="1796.9" x2="6612.76" y2="1349.95" gradientTransform="translate(-5492.74)" xlink:href="#linear-gradient-8"/><linearGradient id="linear-gradient-26" x1="6285.24" y1="1510.03" x2="6768.63" y2="1510.03" gradientTransform="translate(-5492.74)" xlink:href="#linear-gradient-8"/><linearGradient id="linear-gradient-27" x1="-1189.5" y1="1624.34" x2="-1117.4" y2="1624.34" xlink:href="#linear-gradient-13"/><linearGradient id="linear-gradient-28" x1="1461.94" y1="-618.44" x2="2194.99" y2="852.61" gradientTransform="matrix(1, 0, 0, 1, 0, 0)" xlink:href="#linear-gradient-13"/><linearGradient id="linear-gradient-29" x1="1893.03" y1="347.79" x2="2605.04" y2="1668.37" gradientTransform="matrix(1, 0, 0, 1, 0, 0)" xlink:href="#linear-gradient-13"/><linearGradient id="linear-gradient-30" x1="1697.49" y1="435.56" x2="2389.19" y2="1823.64" gradientTransform="matrix(1, 0, 0, 1, 0, 0)" xlink:href="#linear-gradient-13"/></defs><g class="cls-3"><g id="Calque_2" data-name="Calque 2"><g id="Illustration"><path class="cls-4" d="M2721.2,800.06c74.93-682.42-586.67-919.5-1055.7-744.77C1192.67,231.43,1083.05-60.56,418.18,22.87-255,107.34,86.76,1164.12,86.76,1164.12s107.12,918.94,234,1342.52c126.22,421.29,1334.43,268.87,1628.35,256.3,292.22-12.5,546.15,11.62,800.39-451C3003.32,1850.27,2646.52,1480.22,2721.2,800.06Z"/><path class="cls-5" d="M1714.45,550.71l-51.8,3.5a403,403,0,0,0-23.44-66.72l43-28.84a25.49,25.49,0,0,0,6.73-35.57l-50.12-73.74a26,26,0,0,0-35.82-7.16l-43.54,29.06a416.78,416.78,0,0,0-53.72-46.4l23-47.15a25.93,25.93,0,0,0-12.1-34.49l-80.69-39.7A25.8,25.8,0,0,0,1401.19,215l-23.12,47.3a413.9,413.9,0,0,0-70-13.85l-4-53a26.51,26.51,0,0,0-28-24.25l-90.19,5.32a25.55,25.55,0,0,0-24.21,27.4l4,53.2a409.69,409.69,0,0,0-67.83,22.31l-30.42-44.35a26.8,26.8,0,0,0-36.66-7.33l-75.49,49.57a25.59,25.59,0,0,0-7,36.07l30.53,44.36a407.38,407.38,0,0,0-47.37,53.37l-48.84-23.59c-13.22-6.39-29.12-1.1-35.5,11.81l-40,80.84a26,26,0,0,0,12.43,35L868.1,538.4a399.24,399.24,0,0,0-13.65,70.33l-53.68,3.62a26.15,26.15,0,0,0-24.63,27.88L783,730.31c1.09,14.4,13.9,25.24,28.59,24.21l53.24-3.75a402.52,402.52,0,0,0,23.89,68.13l-43.8,29.23a25.82,25.82,0,0,0-7,36.31L889.62,959a26.85,26.85,0,0,0,36.91,6.82L970,936.62a416.76,416.76,0,0,0,55.45,47.06l-22.72,46.46a25.82,25.82,0,0,0,12.36,34.74l82.18,38.7a26.59,26.59,0,0,0,35.18-12.28l22.41-46a413.41,413.41,0,0,0,71.66,13.07l3.86,50.87a26,26,0,0,0,28.1,23.8l90-7.1a26.08,26.08,0,0,0,24.06-27.84l-3.85-50.72a410.4,410.4,0,0,0,68.24-23.77l28.75,41.78a26,26,0,0,0,36.06,6.66l73.86-50.35a25.71,25.71,0,0,0,6.77-35.8l-28.83-42a408.18,408.18,0,0,0,46.54-54.09l46.08,22.12a25.77,25.77,0,0,0,34.37-12L1719,820a25.69,25.69,0,0,0-12-34.27l-46.17-22.31a398.34,398.34,0,0,0,12.83-69.61l51.37-3.61a25.47,25.47,0,0,0,23.65-27.37l-6.7-88.3A25.9,25.9,0,0,0,1714.45,550.71ZM1247.58,392.05c145.15-9.22,271,99.46,281.87,242.69s-97.26,268-242.3,278.83c-145.91,10.86-273.75-97.68-284.74-242.49S1101.55,401.33,1247.58,392.05Z"/><path class="cls-1" d="M1508.61,2297.27c-156.26-210.36-87.3-535.7,36.43-591.13,64.35-28.82,116.89,27.3,179.44-11.77,69.3-43.28,39.06-133.57,97.15-293.68,30-82.73,84.43-232.75,189.83-259.46,104.53-26.49,155,94.69,269,72.41,107.82-21.07,103.7-137.43,246.75-200.15,13.3-5.84,163.81-69.67,247.26-.36,84.78,70.43,70.39,253.41-12.9,346.05-75.67,84.17-186,69-197.42,128.55-12.61,65.59,117.21,105.45,110.73,174.08-9.37,99.18-287.45,88.25-338.26,234.06-29.87,85.73,52.89,128,39,243.47-17.92,149.09-177.77,261.83-300.18,305.21C1898.07,2507.4,1644.05,2479.6,1508.61,2297.27Z"/><g class="cls-6"><g class="cls-7"><path class="cls-8" d="M1569.84,2466.61l-7.07-4.36C1731.58,2188.5,1906,1940,2081.32,1723.53c140.26-173.17,281.35-326.3,419.36-455.12,235.19-219.53,382-293.33,383.47-294.05l3.68,7.44c-1.44.72-147.5,74.2-381.92,293.09C2289.53,1476.93,1951.49,1847.68,1569.84,2466.61Z"/><path class="cls-8" d="M2478.88,1290.25c31.46-255.51,172-428.09,173.46-429.8l6.4,5.29c-1.4,1.7-140.46,172.52-171.62,425.52Z"/><path class="cls-8" d="M2055.57,1754.05c-54-275.18-39.18-453.8-17.22-555.18,23.93-110.42,60.35-154.91,61.89-156.75l6.37,5.32c-.36.44-36.91,45.3-60.33,154.1-21.65,100.53-36.2,277.72,17.44,550.91Z"/><path class="cls-8" d="M1711.45,2233.32c-200.16-447.56-125.7-726.89-124.92-729.66l8,2.24c-.2.7-19.28,73.16-12.07,201.69,6.36,113.18,35.21,295.68,136.57,522.33Z"/><path class="cls-8" d="M2196.64,1713.72a760.23,760.23,0,0,1-86.14-16.59l2.05-8.05c188.59,47.92,374.17,14.11,496.64-22.7,132.76-39.91,221.89-91.76,222.77-92.28l4.21,7.16c-.9.53-90.89,52.89-224.59,93.07C2506.82,1705.82,2356.2,1735.13,2196.64,1713.72Z"/><path class="cls-8" d="M1822.14,2154.08q-23.09-3.09-46.57-7.95l1.69-8.13c198.62,41.27,376.51-18.45,490.77-75.8,123.9-62.2,201.65-135,202.42-135.74l5.7,6c-.78.74-79.42,74.38-204.39,137.12C2165.32,2123.05,2004.15,2178.5,1822.14,2154.08Z"/></g></g><path class="cls-2" d="M841.2,1973.59c-259.14,38.92-513.78-175-504.48-310.26,4.84-70.35,79.08-90.31,74-163.88-5.59-81.51-99.49-97.31-213.45-223.89-58.88-65.41-165.65-184-139.64-289.59,25.8-104.69,156.47-92.19,190.46-203.3C280.26,677.6,175.64,626.5,187.6,470.76c1.11-14.48,15.59-177.33,116-218.35,102-41.68,256.72,57.11,299.28,174.19C641.57,533,576.32,623.18,623.46,661.28c51.94,42,148.2-53.82,205.7-15.81,83.12,54.93-57.36,295.17,47.4,408.6,61.6,66.7,137.79,13.53,233.19,80.13,123.14,86,147.41,280,128.1,408.47C1209.86,1728.78,1065.82,1939.85,841.2,1973.59Z"/><g class="cls-9"><g class="cls-7"><path class="cls-8" d="M1019.44,1999.22l-7.17,4.19c-162.15-277.75-299.39-548.63-407.9-805.12C517.54,993.05,448.8,796.5,400.06,614.11,317,303.29,321,139,321,137.39l8.31.26c-.05,1.61-3.92,165.06,78.94,474.9C484.72,898.54,652.84,1371.26,1019.44,1999.22Z"/><path class="cls-8" d="M409.07,643.63c-210.65-148-296.8-353.22-297.65-355.27l7.68-3.16c.84,2,86.16,205.11,294.75,351.63Z"/><path class="cls-8" d="M619.19,1235.37c-268.25-81.79-418.88-178.93-498-246C35,916.3,12.88,863.23,12,861l7.7-3.12c.22.53,22.6,53.88,107.59,125.74,78.53,66.4,228,162.59,494.34,243.8Z"/><path class="cls-8" d="M880.2,1764.5c-489.1-33.94-700.55-231.06-702.63-233l5.74-6c.52.5,55.49,51.43,172.3,105.54,102.86,47.64,277.47,108,525.16,125.23Z"/><path class="cls-8" d="M650,1091.91a759.72,759.72,0,0,1-55.17,68.2l-6.14-5.59C719.68,1010.65,777.15,831,802.28,705.6c27.25-135.92,23.43-239,23.38-240l8.31-.34c0,1,3.9,105.08-23.54,242C788.93,814.48,743.93,961.18,650,1091.91Z"/><path class="cls-8" d="M862.36,1629.55q-13.59,18.92-28.93,37.36l-6.38-5.32c129.87-155.85,160.86-340.92,164-468.73,3.41-138.59-24.26-241.45-24.54-242.48l8-2.19c.28,1,28.26,105.08,24.83,244.88C996.43,1312.13,969.54,1480.43,862.36,1629.55Z"/></g></g><path class="cls-10" d="M2765,2573.47,140.57,2550.78v67.12c0,18.22,11.45,33.71,27,36.47l742.12,132.18a102.86,102.86,0,0,0,26.62,1.24l1800.24-150.7c16.08-1.35,28.52-16.89,28.52-35.6Z"/><path class="cls-10" d="M1799.22,2465.9l-1668,122.79c-29.85,2.2-54.12-21.15-54.12-52.15V1294.39c0-31,24.27-56.14,54.12-56.14l59,34,1609-34c24.59,0,44.47,22.72,44.47,50.75V2411.88C1843.69,2439.91,1823.81,2464.09,1799.22,2465.9Z"/><path class="cls-8" d="M1825.82,2465.9l-1668,122.79c-29.85,2.2-54.12-21.15-54.12-52.15V1294.39c0-31,24.27-56.14,54.12-56.14H1825.82c24.59,0,44.47,22.72,44.47,50.75V2411.88C1870.29,2439.91,1850.41,2464.09,1825.82,2465.9Z"/><path class="cls-11" d="M1773.85,2386.74,220.24,2493.4c-24.29,1.66-44-17.5-44-42.81V1363.09c0-25.31,19.74-45.92,44-46l1553.61-6.7c20.29-.09,36.7,18.53,36.7,41.58v990.53C1810.55,2365.53,1794.14,2385.34,1773.85,2386.74Z"/><g class="cls-7"><polygon class="cls-12" points="771.25 1419.13 351.97 1420.22 351.91 1380.24 771.19 1380.38 771.25 1419.13"/><polygon class="cls-12" points="968.69 1407.55 871.83 1407.72 871.79 1380.41 968.65 1380.44 968.69 1407.55"/><polygon class="cls-12" points="968.75 1445.22 871.89 1445.67 871.85 1418.36 968.71 1418.11 968.75 1445.22"/><polygon class="cls-8" points="1451.43 1442.98 1075.67 1444.72 1075.62 1417.84 1451.39 1416.87 1451.43 1442.98"/><polygon class="cls-8" points="1513.11 1478.79 1141.08 1481.59 1141.04 1454.84 1513.07 1452.81 1513.11 1478.79"/><polygon class="cls-8" points="1513.16 1514.88 1141.14 1518.76 1141.09 1492.01 1513.12 1488.9 1513.16 1514.88"/><polygon class="cls-12" points="1513.22 1550.97 1141.19 1555.93 1141.15 1529.18 1513.18 1524.99 1513.22 1550.97"/><polygon class="cls-12" points="968.81 1482.89 871.95 1483.62 871.91 1456.31 968.76 1455.78 968.81 1482.89"/><polygon class="cls-12" points="968.86 1520.56 872.01 1521.57 871.97 1494.25 968.82 1493.44 968.86 1520.56"/><polygon class="cls-12" points="968.92 1558.22 872.07 1559.51 872.02 1532.2 968.88 1531.11 968.92 1558.22"/><polygon class="cls-12" points="968.98 1595.89 872.13 1597.46 872.08 1570.15 968.94 1568.78 968.98 1595.89"/><polygon class="cls-12" points="1228.52 1591.68 990.12 1595.55 990.08 1568.48 1228.48 1565.11 1228.52 1591.68"/><polygon class="cls-12" points="969.04 1633.56 872.18 1635.41 872.14 1608.1 969 1606.45 969.04 1633.56"/><polygon class="cls-12" points="969.1 1671.22 872.24 1673.35 872.2 1646.04 969.05 1644.11 969.1 1671.22"/><polygon class="cls-12" points="969.15 1708.89 872.3 1711.3 872.26 1683.99 969.11 1681.78 969.15 1708.89"/><polygon class="cls-8" points="1340.28 1626.46 1075.95 1631.51 1075.91 1604.63 1340.24 1600.13 1340.28 1626.46"/><polygon class="cls-12" points="1477.66 1660.04 1141.37 1667.43 1141.32 1640.68 1477.62 1633.99 1477.66 1660.04"/><polygon class="cls-12" points="1477.71 1696.23 1141.42 1704.6 1141.38 1677.85 1477.67 1670.18 1477.71 1696.23"/><polygon class="cls-12" points="969.21 1746.56 872.36 1749.25 872.32 1721.94 969.17 1719.45 969.21 1746.56"/><polygon class="cls-12" points="969.27 1784.22 872.42 1787.2 872.38 1759.88 969.23 1757.12 969.27 1784.22"/><polygon class="cls-12" points="969.33 1821.89 872.48 1825.14 872.43 1797.83 969.29 1794.78 969.33 1821.89"/><polygon class="cls-12" points="969.39 1859.56 872.53 1863.09 872.49 1835.78 969.35 1832.45 969.39 1859.56"/><polygon class="cls-12" points="969.45 1897.23 872.59 1901.04 872.55 1873.72 969.4 1870.12 969.45 1897.23"/><polygon class="cls-12" points="969.5 1934.89 872.65 1938.98 872.61 1911.67 969.46 1907.78 969.5 1934.89"/><polygon class="cls-12" points="969.56 1972.56 872.71 1976.93 872.67 1949.62 969.52 1945.45 969.56 1972.56"/><polygon class="cls-12" points="969.62 2010.23 872.77 2014.88 872.73 1987.57 969.58 1983.12 969.62 2010.23"/><polygon class="cls-12" points="969.68 2047.89 872.83 2052.82 872.79 2025.51 969.64 2020.78 969.68 2047.89"/><polygon class="cls-12" points="969.74 2085.56 872.89 2090.77 872.85 2063.46 969.7 2058.45 969.74 2085.56"/><polygon class="cls-12" points="969.8 2123.23 872.95 2128.72 872.9 2101.41 969.75 2096.12 969.8 2123.23"/><polygon class="cls-12" points="969.85 2160.9 873 2166.67 872.96 2139.36 969.81 2133.79 969.85 2160.9"/><polygon class="cls-12" points="969.91 2198.56 873.06 2204.61 873.02 2177.3 969.87 2171.45 969.91 2198.56"/><polygon class="cls-12" points="969.97 2236.23 873.12 2242.56 873.08 2215.25 969.93 2209.12 969.97 2236.23"/><polygon class="cls-12" points="970.03 2273.9 873.18 2280.51 873.14 2253.2 969.99 2246.79 970.03 2273.9"/><polygon class="cls-12" points="970.09 2311.56 873.24 2318.45 873.2 2291.14 970.04 2284.45 970.09 2311.56"/><polygon class="cls-12" points="970.14 2349.23 873.3 2356.4 873.25 2329.09 970.1 2322.12 970.14 2349.23"/><polygon class="cls-12" points="970.2 2386.9 873.36 2394.35 873.31 2367.04 970.16 2359.79 970.2 2386.9"/><polygon class="cls-8" points="1253.33 1407.05 989.17 1407.52 989.13 1380.45 1253.29 1380.54 1253.33 1407.05"/><polygon class="cls-12" points="1452.55 2168.41 1076.82 2191.88 1076.78 2165 1452.51 2142.3 1452.55 2168.41"/><polygon class="cls-8" points="1514.22 2200.65 1142.23 2224.97 1142.19 2198.22 1514.18 2174.68 1514.22 2200.65"/><polygon class="cls-8" points="1514.28 2236.75 1142.29 2262.14 1142.24 2235.39 1514.24 2210.77 1514.28 2236.75"/><polygon class="cls-8" points="1674.64 2261.43 1312.28 2287.22 1312.23 2260.82 1674.6 2235.79 1674.64 2261.43"/><polygon class="cls-12" points="1674.69 2297.07 1312.33 2323.89 1312.29 2297.5 1674.65 2271.42 1674.69 2297.07"/><polygon class="cls-12" points="1674.75 2332.7 1312.39 2360.57 1312.35 2334.17 1674.71 2307.05 1674.75 2332.7"/><polygon class="cls-8" points="1254.46 2143.94 990.33 2159.68 990.29 2132.61 1254.42 2117.42 1254.46 2143.94"/><polygon class="cls-8" points="1451.94 1769.42 1076.19 1780.95 1076.14 1754.06 1451.9 1743.32 1451.94 1769.42"/><polygon class="cls-12" points="1513.61 1803.63 1141.6 1816.11 1141.55 1789.36 1513.57 1777.65 1513.61 1803.63"/><polygon class="cls-8" points="1513.66 1839.72 1141.65 1853.28 1141.61 1826.53 1513.63 1813.74 1513.66 1839.72"/><polygon class="cls-8" points="1513.72 1875.81 1141.71 1890.45 1141.67 1863.7 1513.68 1849.84 1513.72 1875.81"/><polygon class="cls-8" points="1229.04 1923.93 990.64 1934 990.6 1906.93 1229 1897.36 1229.04 1923.93"/><polygon class="cls-12" points="1340.79 1955.81 1076.47 1967.74 1076.43 1940.85 1340.75 1929.47 1340.79 1955.81"/><polygon class="cls-12" points="1478.16 1985.81 1141.88 2001.96 1141.84 1975.2 1478.12 1959.76 1478.16 1985.81"/><polygon class="cls-8" points="1478.21 2022.01 1141.94 2039.13 1141.9 2012.37 1478.17 1995.95 1478.21 2022.01"/><polygon class="cls-8" points="1552.82 2054.19 1220.59 2072.07 1220.55 2045.48 1552.78 2028.3 1552.82 2054.19"/><polygon class="cls-8" points="1552.88 2090.17 1220.65 2109.01 1220.61 2082.42 1552.84 2064.28 1552.88 2090.17"/><polygon class="cls-8" points="1253.84 1738.65 989.69 1745.99 989.65 1718.92 1253.8 1712.13 1253.84 1738.65"/><polygon class="cls-12" points="771.35 1479.67 531.36 1481.39 531.3 1441.94 771.28 1440.92 771.35 1479.67"/><polygon class="cls-12" points="469.29 1481.84 514.49 1481.52 514.42 1442.02 469.22 1442.21 469.29 1481.84"/><polygon class="cls-12" points="771.43 1535.37 531.45 1538.11 531.38 1498.65 771.37 1496.62 771.43 1535.37"/><polygon class="cls-12" points="469.37 1538.81 514.57 1538.3 514.51 1498.8 469.31 1499.18 469.37 1538.81"/><polygon class="cls-12" points="771.52 1591.07 531.53 1594.82 531.47 1555.37 771.46 1552.32 771.52 1591.07"/><polygon class="cls-12" points="469.46 1595.79 514.66 1595.08 514.6 1555.58 469.4 1556.15 469.46 1595.79"/><polygon class="cls-12" points="772.13 1986.44 352.87 2005.52 352.81 1965.54 772.07 1947.69 772.13 1986.44"/><polygon class="cls-12" points="772.22 2046.99 532.25 2059 532.19 2019.55 772.16 2008.24 772.22 2046.99"/><polygon class="cls-12" points="470.18 2062.11 515.38 2059.85 515.32 2020.35 470.12 2022.48 470.18 2062.11"/><polygon class="cls-12" points="772.31 2102.69 532.34 2115.72 532.28 2076.26 772.25 2063.94 772.31 2102.69"/><polygon class="cls-12" points="470.27 2119.09 515.47 2116.63 515.41 2077.13 470.21 2079.45 470.27 2119.09"/><polygon class="cls-12" points="772.39 2158.39 532.43 2172.43 532.37 2132.97 772.33 2119.64 772.39 2158.39"/><polygon class="cls-12" points="470.36 2176.06 515.55 2173.41 515.49 2133.91 470.3 2136.42 470.36 2176.06"/><polygon class="cls-12" points="771.6 1647.15 352.33 1655.47 352.27 1615.49 771.54 1608.4 771.6 1647.15"/><polygon class="cls-12" points="771.7 1707.69 531.72 1713.55 531.65 1674.1 771.64 1668.94 771.7 1707.69"/><polygon class="cls-12" points="469.64 1715.07 514.85 1713.96 514.78 1674.46 469.58 1675.44 469.64 1715.07"/><polygon class="cls-12" points="771.78 1763.39 531.8 1770.26 531.74 1730.81 771.72 1724.64 771.78 1763.39"/><polygon class="cls-12" points="469.73 1772.04 514.93 1770.75 514.87 1731.25 469.67 1732.41 469.73 1772.04"/><polygon class="cls-12" points="771.96 1875.52 531.98 1884.42 531.92 1844.97 771.9 1836.77 771.96 1875.52"/><polygon class="cls-12" points="469.91 1886.72 515.11 1885.05 515.05 1845.55 469.85 1847.09 469.91 1886.72"/><polygon class="cls-12" points="772.04 1931.21 532.07 1941.13 532.01 1901.68 771.98 1892.47 772.04 1931.21"/><polygon class="cls-12" points="470 1943.7 515.2 1941.83 515.14 1902.33 469.94 1904.07 470 1943.7"/><polygon class="cls-12" points="771.87 1819.09 531.89 1826.97 531.83 1787.52 771.81 1780.34 771.87 1819.09"/><polygon class="cls-12" points="469.82 1829.01 515.02 1827.53 514.96 1788.03 469.76 1789.38 469.82 1829.01"/><polygon class="cls-12" points="772.48 2214.07 353.24 2240.36 353.17 2200.38 772.42 2175.32 772.48 2214.07"/><polygon class="cls-12" points="772.57 2274.61 532.61 2290.76 532.55 2251.31 772.51 2235.86 772.57 2274.61"/><polygon class="cls-12" points="470.54 2294.94 515.74 2291.89 515.68 2252.39 470.48 2255.3 470.54 2294.94"/><polygon class="cls-12" points="772.66 2330.31 532.7 2347.47 532.63 2308.02 772.6 2291.56 772.66 2330.31"/><polygon class="cls-12" points="470.63 2351.91 515.83 2348.68 515.76 2309.18 470.57 2312.28 470.63 2351.91"/><polygon class="cls-12" points="772.75 2386.01 532.78 2404.18 532.72 2364.73 772.69 2347.26 772.75 2386.01"/><polygon class="cls-12" points="470.72 2408.88 515.91 2405.46 515.85 2365.96 470.66 2369.25 470.72 2408.88"/><polygon class="cls-12" points="823.69 2382.35 814.46 2383.05 812.91 1380.39 822.14 1380.4 823.69 2382.35"/></g><path class="cls-8" d="M1050.7,1272.22c0,11.55-8.58,20.93-19.18,21s-19.23-9.31-19.23-20.88,8.61-21,19.23-21S1050.7,1260.68,1050.7,1272.22Z"/><path class="cls-13" d="M157.76,2588.69l1659.61-122.17,8.45-.62c11.28-.83,21.54-6.41,29.38-14.87-119.43-6.53-193.61-48.92-241.46-92.71-96.09-87.94-79.43-174.67-183-232.49-129.25-72.12-230.88,19.26-329-70.9-59.46-54.67-30.27-95.43-103.44-177.12-81-90.48-133.79-60.07-215.24-141.5-103-103-51.47-183.07-140.17-257-107.61-89.68-223.66-6.67-326.1-92.68-44.18-37.1-68.42-91-81.08-148.38H157.77c-29.85,0-54.12,25.13-54.12,56.14V2536.54C103.65,2567.54,127.91,2590.89,157.76,2588.69Z"/><path class="cls-14" d="M1904.41,2459.09,140.57,2588.34l769.07,137a103.3,103.3,0,0,0,26.62,1.24L2765,2573.47,1932.47,2460A134.36,134.36,0,0,0,1904.41,2459.09Z"/><polygon class="cls-11" points="397.94 2589.45 1866.39 2480.24 2320.86 2541.7 865.06 2658.44 397.94 2589.45"/><path class="cls-15" d="M2078.21,503.87,559.47,454c-50.93-1.67-92.39,38.5-92.39,89.74V2023.94c0,51.24,41.46,91,92.39,88.83l1518.74-64.85c43.93-1.87,79.4-41.74,79.4-89.05V592.14C2157.61,544.83,2122.14,505.31,2078.21,503.87Z"/><path class="cls-16" d="M559.47,2083.27c-34.64,1.44-62.81-25.64-62.81-60.47V544.55a60.64,60.64,0,0,1,62.81-61.09l1518.74,47.87c29.93.94,54.12,27.84,54.12,60.08V1959.84c0,32.25-24.19,59.39-54.12,60.62Z"/><path class="cls-17" d="M2078.21,503.87,559.47,454c-50.93-1.67-92.39,38.5-92.39,89.74v66.55l1690.54,43.34V592.14C2157.62,544.83,2122.14,505.31,2078.21,503.87Z"/><path class="cls-8" d="M631.35,539.49a29.05,29.05,0,0,1-30,29.3,31.16,31.16,0,0,1-30-31,29,29,0,0,1,30-29.3A31.17,31.17,0,0,1,631.35,539.49Z"/><path class="cls-8" d="M735.91,542.52a28.86,28.86,0,0,1-29.67,29.18,31,31,0,0,1-29.75-30.9,28.85,28.85,0,0,1,29.75-29.17A31,31,0,0,1,735.91,542.52Z"/><path class="cls-8" d="M839.47,545.53c0,16.49-13.14,29.49-29.38,29s-29.47-14.22-29.47-30.75a28.64,28.64,0,0,1,29.47-29C826.33,515.28,839.47,529.05,839.47,545.53Z"/><polygon class="cls-8" points="1376.96 795.46 574.77 781.04 574.77 828.21 1376.96 840.9 1376.96 795.46"/><polygon class="cls-8" points="1980.07 806.3 1980.07 850.45 2064.94 851.79 2064.94 807.83 1980.07 806.3"/><g class="cls-7"><polygon class="cls-8" points="744.36 943.59 574.77 941.78 574.77 893.14 744.36 895.32 744.36 943.59"/><polygon class="cls-8" points="1650.38 953.23 852.63 944.74 852.63 896.72 1650.38 906.98 1650.38 953.23"/><polygon class="cls-8" points="1017.97 1027.9 852.63 1026.77 852.63 978.75 1017.97 980.25 1017.97 1027.9"/><polygon class="cls-8" points="1901.82 1033.97 1123.55 1028.63 1123.55 981.21 1901.82 988.27 1901.82 1033.97"/><polygon class="cls-8" points="1017.97 1109.31 852.63 1108.8 852.63 1060.78 1017.97 1061.65 1017.97 1109.31"/><polygon class="cls-8" points="1901.82 1112.02 1123.55 1109.63 1123.55 1062.21 1901.82 1066.33 1901.82 1112.02"/><polygon class="cls-8" points="744.36 1190.91 574.77 1191.03 574.77 1142.39 744.36 1142.64 744.36 1190.91"/><polygon class="cls-8" points="1650.38 1190.26 852.63 1190.83 852.63 1142.81 1650.38 1144.01 1650.38 1190.26"/><polygon class="cls-8" points="1017.97 1272.11 852.63 1272.86 852.63 1224.84 1017.97 1224.46 1017.97 1272.11"/><polygon class="cls-8" points="1901.82 1268.13 1123.55 1271.64 1123.55 1224.22 1901.82 1222.44 1901.82 1268.13"/><polygon class="cls-8" points="1017.97 1353.52 852.63 1354.89 852.63 1306.87 1017.97 1305.86 1017.97 1353.52"/><polygon class="cls-8" points="1901.82 1346.19 1123.55 1352.64 1123.55 1305.22 1901.82 1300.49 1901.82 1346.19"/><polygon class="cls-8" points="1017.97 1434.92 852.63 1436.92 852.63 1388.89 1017.97 1387.27 1017.97 1434.92"/><polygon class="cls-8" points="1901.82 1424.25 1123.55 1433.65 1123.55 1386.22 1901.82 1378.55 1901.82 1424.25"/><polygon class="cls-8" points="1287.3 1512.05 1126.09 1514.61 1126.09 1467.19 1287.3 1464.99 1287.3 1512.05"/><polygon class="cls-8" points="2022.59 1500.39 1390.25 1510.42 1390.25 1463.59 2022.59 1454.96 2022.59 1500.39"/><polygon class="cls-8" points="744.36 1603.1 574.77 1606.44 574.77 1557.8 744.36 1554.84 744.36 1603.1"/><polygon class="cls-8" points="1650.38 1585.3 852.63 1600.98 852.63 1552.95 1650.38 1539.05 1650.38 1585.3"/><polygon class="cls-8" points="1017.97 1679.13 852.63 1683.01 852.63 1634.98 1017.97 1631.47 1017.97 1679.13"/><polygon class="cls-8" points="1901.82 1658.42 1123.55 1676.66 1123.55 1629.23 1901.82 1612.72 1901.82 1658.42"/><polygon class="cls-8" points="1017.97 1760.53 852.63 1765.04 852.63 1717.01 1017.97 1712.88 1017.97 1760.53"/><polygon class="cls-8" points="1901.82 1736.47 1123.55 1757.66 1123.55 1710.24 1901.82 1690.78 1901.82 1736.47"/><polygon class="cls-8" points="744.36 1850.42 574.77 1855.68 574.77 1807.04 744.36 1802.16 744.36 1850.42"/><polygon class="cls-8" points="1650.38 1822.33 852.63 1847.07 852.63 1799.04 1650.38 1776.07 1650.38 1822.33"/><polygon class="cls-8" points="1017.97 1923.34 852.63 1929.1 852.63 1881.07 1017.97 1875.69 1017.97 1923.34"/><polygon class="cls-8" points="1901.82 1892.59 1123.55 1919.67 1123.55 1872.25 1901.82 1846.89 1901.82 1892.59"/></g><g class="cls-18"><path class="cls-8" d="M1487.87,1072.92c-177.39-258.12-484.43-176-678.66-461.19-35-51.43-58.8-103.77-75.1-152L559.47,454c-50.93-1.67-92.39,38.5-92.39,89.74V2023.94c0,51.24,41.46,91,92.39,88.83l1463.12-62.47c-33.52-48.34-325.45-227.4-400.86-502.31C1552.76,1296.58,1594.89,1228.64,1487.87,1072.92Z"/></g><path class="cls-19" d="M2396.6,1623.85c0-154.17-142.21-274.53-311.59-269-96.47,3.14-180.39,46.62-232.79,110.82l0-.06c-.33.4-.63.81-1,1.21-.9,1.13-1.78,2.27-2.66,3.41-1.62,2.07-3.22,4.15-4.77,6.26-.92,1.25-1.82,2.51-2.72,3.77q-2.23,3.16-4.38,6.39c-.82,1.22-1.65,2.45-2.45,3.69q-2.38,3.72-4.63,7.52c-.55.91-1.12,1.81-1.66,2.73q-3,5.15-5.72,10.41c-.49.93-.93,1.88-1.4,2.82-1.33,2.63-2.63,5.28-3.87,8-.61,1.31-1.18,2.63-1.76,4q-1.58,3.55-3,7.15-.84,2.09-1.65,4.2c-1,2.46-1.85,4.94-2.72,7.44-.45,1.3-.92,2.6-1.35,3.92-1,3.14-2,6.3-2.91,9.49-.18.66-.4,1.32-.59,2q-1.59,5.76-2.89,11.63c-.26,1.15-.47,2.31-.71,3.47-.59,2.8-1.14,5.61-1.63,8.44-.24,1.44-.46,2.89-.69,4.34q-.6,3.93-1.08,7.89c-.18,1.49-.35,3-.5,4.46-.29,2.78-.5,5.59-.69,8.4-.09,1.31-.2,2.61-.27,3.92-.21,4.11-.33,8.23-.33,12.39,0,98.93,59.91,186.2,149.74,232.93q12.4,6.43,25.54,11.85,6.57,2.7,13.32,5.12A330.5,330.5,0,0,0,2085,1893.9h0c5,.15,9.95.17,14.88.1,1.67,0,3.32-.12,5-.16,3.27-.1,6.53-.2,9.78-.38,2-.12,3.94-.3,5.91-.45,2.9-.22,5.79-.43,8.67-.73,2.1-.21,4.19-.48,6.28-.73,2.72-.33,5.44-.67,8.13-1.06,2.16-.32,4.29-.67,6.43-1,2.61-.44,5.21-.89,7.8-1.38,2.16-.42,4.32-.86,6.46-1.31,2.54-.54,5.05-1.1,7.56-1.69,2.15-.51,4.3-1,6.43-1.58,2.48-.64,4.94-1.32,7.39-2,2.11-.59,4.23-1.19,6.32-1.83.77-.24,1.56-.44,2.33-.68l-.05,0C2311.5,1842.22,2396.6,1742.71,2396.6,1623.85Z"/><path class="cls-20" d="M2373.33,1623.89c0,153.78-141.49,274.3-310,269.38-162.25-4.74-289.42-124.83-289.42-268.39s127.17-264.07,289.42-269.34C2231.84,1350.06,2373.33,1470.11,2373.33,1623.89Z"/><path class="cls-8" d="M1987.27,1698.37,1867,1637.14v-19.72l120.32-69.67v33.56L1904,1625.77l83.24,39.18Z"/><path class="cls-8" d="M2115.26,1520.57l-68.43,206.8-34.38-.35,67.89-206Z"/><path class="cls-8" d="M2140.69,1665.41l87.94-40.13-87.94-45v-34.16l128.24,70.28v20.65l-128.24,62.37Z"/><g class="cls-21"><path class="cls-22" d="M2136.6,1826.35c-36.57-80.52.4-154.92-49-206.56-49.6-51.87-113.22-3.38-180.65-44.89-25.79-15.87-54.28-46.25-75.34-108.89-36.32,44.59-57.75,99.57-57.75,158.87,0,143.56,127.17,263.65,289.42,268.39a330.63,330.63,0,0,0,108.81-14.89A185.08,185.08,0,0,1,2136.6,1826.35Z"/></g><path class="cls-23" d="M1071.56,1414.41c27.72-29.6-49-140.82-90.12-189.55-35.89-42.58-72.78-86.34-118.08-80.8-39.77,4.87-78.47,46.81-80.79,87C776.33,1339.22,1032.14,1456.49,1071.56,1414.41Z"/><path class="cls-24" d="M738.65,2557.25c-5.22,4.24-6.18,14.83-6.81,21.76-.28,3.09-.42,4.64-.07,5.73,2.52,8,18,8.81,42.21,11.29,38.31,3.91,49.71,6.93,52.71,1.23,2.81-5.34-4-14.09-4.76-15.06-4.11-5.18-9.17-7.07-18.93-10.28-18.07-6-30.29-9.21-34-10.19C745.93,2555.56,742.07,2554.46,738.65,2557.25Z"/><path class="cls-25" d="M761.43,2522.25l3.83,43.65c-1.09,2.11-14.06,8.43-24.37,3L731,2526Z"/><path class="cls-26" d="M1042.44,2551.64c-6.26,6.91-7.68,19.63-2.24,25.89s13.38,1.54,36.18,2.22c24.43.73,30.81,6.5,47.4,1.92,6.71-1.85,18.55-6.35,18.33-11.13-.16-3.37-6.19-5.11-26.33-11.86-28.58-9.57-28.46-10.1-34.53-11.1C1066,2545.05,1050.7,2542.52,1042.44,2551.64Z"/><path class="cls-27" d="M1058.09,2511.8l12.25,40.75c-.93,2.19-13.38,9.48-24.07,4.86l-18.2-39.55Z"/><path class="cls-28" d="M949.24,1619.31a3817.2,3817.2,0,0,0,120.62,904.35L1023,2536.28c-39.65-37-89.68-95.18-113.81-177.44-15-51.05-10-77.28-19.49-140.07-15.14-100-45.78-152.36-77.46-233-28.46-72.44-62.11-178.77-80.15-320.89Z"/><path class="cls-28" d="M808.15,1606.24q-14.35,261.27-23.4,532.17-6.71,203.24-9.94,401.28l-47.9,5.92a557.9,557.9,0,0,1-50-128.93c-17-68.35-13.1-108.95-20.57-179.8-8.39-79.46-20.58-96.77-42.16-197-43.81-203.44-65.72-305.16-16.85-368.43C613.24,1650.9,663,1599.37,808.15,1606.24Z"/><path class="cls-29" d="M575.46,1168.48a743.74,743.74,0,0,1,159.3-26.61c95.72-5.41,143.58-8.11,177.49,14.68,78.33,52.65,17.69,174.16,49.75,475.36,4.58,43,5.61,86.34,8.92,129.47,5.49,71.41,6.74,75.29,1.77,82.52-31.15,45.38-147.4-23.06-317.79,4-95.34,15.14-138.58,50-164.69,24.86-30.46-29.33-4.34-108.24,18.15-176.16,25.82-78,41.77-79,56.42-137.69,15.32-61.37,6.06-93,3.67-189.75A1713.87,1713.87,0,0,1,575.46,1168.48Z"/><path class="cls-30" d="M807.16,1734c-44.53-3.48-73.42,21.7-111.87,2.07-52.71-26.9-69.65-110.62-66.29-169.87,5.11-90,56.51-113.75,47.65-171.94-4.79-31.47-27.26-73.25-107.93-115.93-1.07,35.92-.87,66.54-.27,90.87,2.39,96.78,11.65,128.38-3.67,189.75-14.65,58.72-30.6,59.72-56.42,137.69-22.49,67.92-48.61,146.83-18.15,176.16,26.11,25.16,69.35-9.72,164.69-24.86,146.81-23.31,253.38,24.22,300,8.8C898.56,1763.59,847.46,1737.11,807.16,1734Z"/><path class="cls-31" d="M636.2,1174.66c-31.8-26.14-95.75,3.45-112.85,11.35-95.33,44.1-180.93,162.93-159.72,288.51,3.18,18.84,17.93,106.93,92.52,149.61,67.31,38.52,158.19,28.61,231-25.94L717,1571.7,746.39,1540a235.62,235.62,0,0,0-78.26-43.12c-48.42-15.63-83.67,12.41-106.14-8.91-15.5-14.7-15.54-40.69-11.71-56.43,7.72-31.74,35.69-40.66,59-63.18C664.18,1315.4,674.29,1206,636.2,1174.66Z"/><polygon class="cls-32" points="1093.29 1584.62 666.97 1578.26 780.33 1632.97 1094.38 1612.42 1093.29 1584.62"/><path class="cls-33" d="M651.92,1589.59h0a19,19,0,0,0,12.49,17.83l136.22,53.4.62-37L667,1578.26A11.79,11.79,0,0,0,651.92,1589.59Z"/><path class="cls-34" d="M717.57,1564.36c-2.62-.58,12.74-31.19,24.8-27.66s71,37.72,76.41,51.79l5.36,14.08s-25.73,2-41.68-3.35S738.84,1569.11,717.57,1564.36Z"/><path class="cls-35" d="M741.91,1037.3a331.75,331.75,0,0,1-5.93,66.29c-3.43,17.66-5.9,22.22-9.06,25.92-4.74,5.58-11.94,10.25-52.6,20.33-22.13,5.49-25,5.34-25.47,7.54-2.38,10.71,58,47.22,120.3,38.42,38.15-5.39,72.86-27.15,70.73-38.58s-40.26-5.33-51.61-26.14c-7.91-14.48,1-35,11.42-52.06C789.55,1060,752.05,1056.3,741.91,1037.3Z"/><path class="cls-28" d="M812.72,1048.52c9-12,9.56-32.84-.82-46-8.93-11.36-23-13-31.39-14-24.37-2.82-55.12,7.36-65.82,29.79-6.34,13.29,7.37,40.92,9.52,45.88,2.43,5.62,6.84,7.54,10.92,11.79,5.65,5.89,14.49,15.25,28.94,30.91a100.13,100.13,0,0,1,5.53-16.54,89.07,89.07,0,0,1,11.58-19.44C793.88,1055.43,804.18,1059.85,812.72,1048.52Z"/><path class="cls-36" d="M743.47,1093.73s16,26.29,47.92,24.21c28.56-1.86,32.75-65.91,14.5-79.51-6.08-4.53-18.27-6.41-28.18-3.64-5.86,1.65-7.84,4.08-17.46,6.57-8.87,2.3-11.38,1.32-14,3.57-3.35,2.82-5.81,9.73-.21,28.46-5.45-5.52-12-7.64-16.63-5.45a9.75,9.75,0,0,0-3.8,3.71C721.56,1079,728.25,1088.31,743.47,1093.73Z"/><path class="cls-28" d="M744.9,1041.1c1.38,1-2.83,6.17-3.14,13.44-.61,14.12,13.68,31.07,28.26,32.51,8.62.85,11-4.35,25.24-5.85a65,65,0,0,1,20.78,1.2c4.48,15.48.27,30.92-10.08,38.08-11.15,7.72-25.38,3-31.33,1.08-4-1.31-16.74-5.48-23.41-17.18-7-12.19-.13-19.54-8.1-27.78-4-4.16-9.3-6-14.44-14a39.61,39.61,0,0,1-2.9-5.43C733.15,1049.35,742.91,1039.61,744.9,1041.1Z"/><path class="cls-8" d="M790,1095.23s6.17-3.22,16.82-2.62c.52,0,1.1-.12,1.16-.39.25-1-6.59-5.55-12.89-3.78-4.48,1.26-8,5.5-7.36,6.58C788,1095.47,789,1095.41,790,1095.23Z"/><path class="cls-37" d="M812.56,1364l-30,273.61c-1,9.44,12.18,23.5,21.67,23L1245,1633.63a15.45,15.45,0,0,0,14.5-12.82l55.33-264.26c1.65-9.62-15.64-19.55-25.39-19.28l-462,13A15.47,15.47,0,0,0,812.56,1364Z"/><path class="cls-38" d="M822.64,1372l-30,273.62a15.45,15.45,0,0,0,16.09,17.12l446.41-21.13a15.44,15.44,0,0,0,14.5-12.82l45.61-265.47a15.46,15.46,0,0,0-15.66-18.07l-462,13A15.45,15.45,0,0,0,822.64,1372Z"/><path class="cls-39" d="M1084.77,1577.5c-39-16.53-25.22-48-71.25-87.29-60.72-51.79-122.62-29.33-144.28-69.47-6.75-12.5-10-32,1.78-63.44l-33.45.94A15.45,15.45,0,0,0,822.64,1372l-30,273.62a15.45,15.45,0,0,0,16.09,17.12l446.41-21.13a15.43,15.43,0,0,0,14.5-12.82l6.3-36.63a168.56,168.56,0,0,0-48.62-18.23C1161.78,1560.65,1129.65,1596.52,1084.77,1577.5Z"/><path class="cls-40" d="M1283.22,1603.34a3.49,3.49,0,0,0-3.13-4.59c-9.44-.48-31.32-.68-43.4,6.72-15.69,9.61-36,27.15-18.9,36l16,8.27a3.37,3.37,0,0,0,2.33.32c5.67-1.25,29.54-6.54,32.15-7.86C1270.6,1641,1279.7,1614,1283.22,1603.34Z"/><path class="cls-41" d="M2617.81,704.07c0-254.2-234.48-452.65-513.77-443.57-159,5.17-297.43,76.87-383.83,182.71l0-.09c-.54.66-1,1.34-1.57,2-1.5,1.86-2.94,3.74-4.4,5.61q-4,5.13-7.86,10.34c-1.52,2.06-3,4.13-4.49,6.21q-3.69,5.22-7.22,10.53c-1.35,2-2.72,4-4,6.08-2.63,4.09-5.16,8.24-7.65,12.41-.9,1.5-1.85,3-2.73,4.51q-4.92,8.47-9.43,17.15c-.8,1.54-1.53,3.11-2.31,4.65-2.19,4.34-4.34,8.71-6.38,13.12-1,2.17-1.94,4.35-2.91,6.53q-2.58,5.87-5,11.8c-.93,2.3-1.84,4.6-2.73,6.92-1.56,4.06-3,8.15-4.47,12.27-.75,2.15-1.53,4.29-2.24,6.46-1.71,5.17-3.29,10.4-4.79,15.65-.31,1.1-.67,2.18-1,3.28q-2.62,9.5-4.77,19.17c-.43,1.9-.78,3.82-1.18,5.72-1,4.62-1.87,9.26-2.68,13.93-.4,2.37-.77,4.76-1.13,7.15q-1,6.48-1.79,13c-.29,2.44-.58,4.88-.83,7.34-.46,4.6-.82,9.22-1.13,13.85-.15,2.16-.33,4.3-.44,6.47-.34,6.77-.56,13.57-.56,20.42,0,163.13,98.8,307,246.91,384.07q20.44,10.62,42.1,19.54,10.85,4.46,22,8.45A545.54,545.54,0,0,0,2104,1149.35h0c8.22.24,16.4.27,24.54.16,2.75,0,5.47-.2,8.21-.28,5.38-.15,10.77-.31,16.11-.62,3.27-.19,6.5-.49,9.76-.73,4.77-.36,9.55-.73,14.29-1.21,3.47-.35,6.91-.79,10.36-1.21,4.48-.54,9-1.1,13.41-1.75,3.54-.51,7.07-1.1,10.59-1.68,4.31-.72,8.6-1.46,12.86-2.28q5.36-1,10.66-2.15,6.27-1.33,12.46-2.79c3.55-.84,7.09-1.7,10.6-2.61,4.09-1,8.15-2.17,12.19-3.32,3.48-1,7-2,10.41-3,1.27-.39,2.58-.72,3.85-1.12l-.09-.09C2477.49,1064.13,2617.81,900.05,2617.81,704.07Z"/><path class="cls-42" d="M2579.44,704.14c0,253.55-233.29,452.28-511.18,444.16-267.54-7.82-477.21-205.83-477.21-442.53s209.67-435.41,477.21-444.11C2346.15,252.62,2579.44,450.58,2579.44,704.14Z"/><path class="cls-8" d="M1872.89,939.86q-24.51-.42-42.62-6.07V871.22a136.08,136.08,0,0,0,34,5.25q23.85.27,34.18-15.1T1908.76,813V478.42l73.4-1.73V813q0,62.92-27.81,95.46T1872.89,939.86Z"/><path class="cls-8" d="M2340.21,794.54q0,58.58-42,91.78-41.76,33-115.3,31.88-67.11-1-118-27.18V807.83q41.83,19.33,71.1,27.42t53.8,8.3q29.44.26,45.28-11T2251,798.57a37.88,37.88,0,0,0-7-22.47q-7-9.86-20.47-19t-54.69-28.91q-38.41-18.25-57.44-35A129.69,129.69,0,0,1,2081,654.32q-11.29-22.19-11.3-51.92,0-56.08,37.24-88.89,37.44-33,104.23-34.57a245.52,245.52,0,0,1,63.27,6.49,431.56,431.56,0,0,1,63.66,21.06l-29.49,71.69q-34.35-13.63-56.65-18.86a178.74,178.74,0,0,0-43.69-4.86q-25.39.42-38.9,12.59t-13.49,31.36c0,8,1.82,14.87,5.45,20.76s9.43,11.56,17.38,17,26.86,15.29,56.81,29.51q59.76,28.44,82.22,57.45T2340.21,794.54Z"/><g class="cls-43"><path class="cls-44" d="M2189.11,1038c-60.3-132.76.67-255.43-80.75-340.58-81.79-85.53-186.68-5.58-297.87-74-42.52-26.17-89.5-76.25-124.22-179.55-59.89,73.52-95.22,164.18-95.22,262,0,236.7,209.67,434.71,477.21,442.53a545.23,545.23,0,0,0,179.4-24.55A305.36,305.36,0,0,1,2189.11,1038Z"/></g></g></g></g></svg>