<svg height="512pt" preserveAspectRatio="xMidYMid meet" viewBox="0 0 512 512" width="512pt" xmlns="http://www.w3.org/2000/svg"><g transform="matrix(.1 0 0 -.1 0 512)"><path d="m1276 4942c-15-11-37-33-47-48-18-28-19-78-19-1582 0-1462 1-1556 18-1584 32-55 65-66 223-77 165-11 266-30 394-72 213-71 403-205 538-379l27-35-3 1730-2 1730-80 57c-235 170-533 265-860 275-147 4-162 3-189-15z"/><path d="m676 4641c-15-10-37-32-47-47-18-28-19-81-19-1734s1-1706 19-1734c10-15 32-37 47-47 28-18 60-19 737-19h707l-16 26c-28 42-152 132-240 175-117 57-250 88-429 100-82 5-168 14-190 20-70 19-137 60-197 120-73 72-114 157-128 260-6 44-10 638-10 1487v1412h-102c-84 0-108-4-132-19z"/><path d="m2975 4640c-73-19-176-64-232-103l-33-22 1-1805c1-993 4-1791 8-1775 11 45 32 74 71 98l35 22 800 5c882 6 823 1 866 67 18 27 19 91 19 1733 0 1653-1 1706-19 1734-10 15-32 37-47 47-28 18-59 19-714 18-632 0-690-2-755-19z"/><path d="m66 4341c-15-10-37-32-47-47-18-28-19-84-19-1884s1-1856 19-1884c10-15 32-37 47-47 28-18 64-19 895-19h867l28-57c38-79 123-162 209-204l70-34h425 425l70 34c85 42 168 123 210 203l30 58h865c831 0 866 1 894 19 15 10 37 32 47 47 18 28 19 84 19 1884s-1 1856-19 1884c-37 55-66 66-178 66h-103v-1562c0-928-4-1593-10-1636-26-203-192-365-400-392-41-5-380-10-752-10h-677l-32-61c-41-75-124-153-209-193-61-29-72-31-180-31-109 0-119 2-183 32-84 40-165 116-206 193l-32 60h-677c-372 0-711 5-752 10-208 27-374 189-400 392-6 43-10 708-10 1636v1562h-102c-84 0-108-4-132-19z"/></g></svg>