<svg height="512pt" preserveAspectRatio="xMidYMid meet" viewBox="0 0 512 512" width="512pt" xmlns="http://www.w3.org/2000/svg"><g transform="matrix(.1 0 0 -.1 0 512)"><path d="m665 5066c-16-8-42-26-57-42-49-53-58-90-58-249v-145h-187c-207 0-239-7-297-66-52-53-66-94-66-194 0-104 15-130 73-130 56 0 70 18 78 105 6 60 13 83 30 101 22 24 26 24 196 24h173v-1350-1350h-200-200v1119 1120l-26 20c-34 27-64 27-98 0l-26-20v-1427c0-1426 0-1426 21-1469 11-24 37-57 57-73 74-61 50-60 1014-60h878v-165-165h-170c-182 0-203-4-247-52-45-48-53-87-53-253s8-205 53-253c50-54 4-52 1007-52 1021 0 960-4 1013 60 38 45 47 90 47 245s-9 200-47 245c-46 55-66 60-253 60h-170v165 165l611 2 611 3 19 24c26 32 25 82-4 109l-23 22h-2068c-2298 0-2115-6-2135 68-6 20-11 119-11 220v182h954 954l4-104c2-87 7-109 24-133 39-53 39-53 474-53s435 0 474 53c17 24 22 46 24 133l4 104h954 954v-182c0-285-2-288-204-288-123 0-125 0-145-26-34-43-21-102 26-123 36-16 250-14 309 4 62 18 116 63 143 118l21 43v1650c0 1578-1 1651-19 1689-23 51-65 93-116 116-34 16-67 19-227 19h-188v148c0 134-2 152-22 192-13 24-40 58-61 74l-39 31-1876 2c-1553 2-1882 0-1907-11zm3733-158c7-7 12-42 12-85v-73h-1850-1850v73c0 43 5 78 12 85 17 17 3659 17 3676 0zm12-1728v-1410h-1850-1850v1410 1410h1850 1850zm531 1264 24-26 3-1324 2-1324h-200-200v1350 1350h173 174zm-2041-2899v-65h-340-340v65 65h340 340zm90-730v-165h-430-430v165 165h430 430zm465-470v-140h-895-895l-3 129c-1 72 0 136 2 143 4 11 170 13 898 11l893-3z"/><path d="m977 4359c-32-18-47-65-47-142 0-94 21-127 79-127 49 0 81 32 81 83 0 35 2 37 34 37 40 0 81 30 90 65 7 29-15 79-39 89-27 10-178 6-198-5z"/><path d="m1340 4350c-31-31-27-93 6-119 24-19 40-21 179-21s155 2 179 21c34 27 37 88 4 119-20 18-35 20-185 20s-165-2-183-20z"/><path d="m1863 4355c-44-31-37-111 13-134 15-6 85-11 175-11 146 0 151 1 174 25 33 32 34 83 2 113-22 21-33 22-183 22-125 0-164-3-181-15z"/><path d="m2375 4345c-30-29-32-74-6-106 19-24 23-24 191-24s172 0 191 24c26 32 24 77-6 106-24 24-27 25-185 25s-161-1-185-25z"/><path d="m2892 4347c-30-32-29-81 3-112 23-24 28-25 174-25 90 0 160 5 175 11 50 23 57 103 13 134-17 12-57 15-182 15-156 0-162-1-183-23z"/><path d="m3412 4350c-33-31-30-92 4-119 24-19 40-21 179-21s155 2 179 21c33 26 37 88 6 119-18 18-33 20-183 20s-165-2-185-20z"/><path d="m3937 4358c-64-49-24-148 60-148 32 0 33-2 33-38 0-50 32-82 82-82 57 0 78 34 78 127 0 79-16 125-49 143-28 14-183 13-204-2z"/><path d="m974 3939c-32-16-44-52-44-134 0-68 2-77 29-107 28-32 33-33 114-36 77-4 86-2 112 21 22 19 29 33 29 62 0 48-31 75-85 75-39 0-39 0-39 39 0 22-7 48-17 60-21 25-70 35-99 20z"/><path d="m4073 3940c-28-12-43-40-43-84 0-35-1-36-39-36-54 0-85-27-85-75 0-29 7-43 29-62 26-23 35-25 112-21 81 3 86 4 114 36 27 30 29 39 29 107 0 84-12 118-47 134-28 13-40 13-70 1z"/><path d="m1340 3800c-31-31-27-93 6-119 24-19 40-21 179-21s155 2 179 21c33 26 37 88 6 119-18 18-33 20-185 20s-167-2-185-20z"/><path d="m1863 3805c-46-32-36-113 17-135 18-7 80-10 180-8 146 3 153 4 171 27 26 32 25 82-4 109-22 21-33 22-183 22-125 0-164-3-181-15z"/><path d="m2371 3794c-26-33-27-75-2-105 19-24 23-24 191-24s172 0 191 24c25 30 24 72-2 105l-20 26h-169-169z"/><path d="m2892 3797c-27-29-28-77-3-108 18-23 25-24 171-27 100-2 162 1 180 8 53 22 63 103 17 135-17 12-57 15-182 15-156 0-162-1-183-23z"/><path d="m3410 3800c-31-31-27-93 6-119 24-19 40-21 179-21s155 2 179 21c33 26 37 88 6 119-18 18-33 20-185 20s-167-2-185-20z"/><path d="m3273 3519c-17-5-43-23-57-40l-26-31v-688-688l26-31c14-17 42-35 62-41 54-15 787-12 832 3 19 7 44 27 57 46l23 34v676c0 652-1 677-20 708-35 59-30 58-465 60-228 1-414-2-432-8zm757-759v-610h-340-340v610 610h340 340z"/><path d="m3632 2937c-14-15-22-36-22-60 0-35-2-37-34-37-51 0-86-33-86-80s35-80 86-80c33 0 34-1 34-38 0-27 7-45 23-60 52-49 137-10 137 63 0 33 2 35 35 35 46 0 85 37 85 80s-39 80-85 80c-33 0-35 2-35 35 0 74-89 114-138 62z"/><path d="m1603 3500c-12-5-28-22-36-37-40-79-220-551-220-577 0-35 42-76 78-76 49 0 70 37 184 326 61 154 111 288 111 298 0 23-54 76-77 75-10 0-28-4-40-9z"/><path d="m2276 3489c-33-26-37-88-6-119 19-19 33-20 374-20 393 0 389-1 402 67 5 27 1 37-24 63l-30 30h-345c-333 0-345-1-371-21z"/><path d="m1108 3468c-26-20-178-278-178-302 0-26 152-296 177-313 26-20 80-16 103 7 34 34 26 78-35 184-31 53-58 103-61 110-3 8 22 59 55 114 69 111 78 156 39 192-25 23-76 27-100 8z"/><path d="m1852 3457c-36-38-28-76 38-185 33-55 60-103 60-107 0-5-27-56-60-115-65-116-74-156-40-190 21-21 69-26 99-10 25 13 181 283 181 313 0 27-141 273-172 300-29 25-80 22-106-6z"/><path d="m2276 3219c-34-27-37-88-4-119 21-19 33-20 371-20 204 0 356 4 366 10 10 5 24 23 31 40 15 35 0 84-31 100-10 6-161 10-362 10-333 0-345-1-371-21z"/><path d="m2270 2950c-31-31-27-93 6-119 26-20 38-21 365-21 230 0 346 4 363 11 50 23 57 103 13 134-18 13-79 15-374 15-340 0-354-1-373-20z"/><path d="m955 2665c-16-15-25-36-25-55s9-40 25-55l24-25h1006c625 0 1013 4 1024 10 31 16 46 65 31 100-7 17-21 35-31 40-11 6-399 10-1024 10h-1006z"/><path d="m974 2418c-23-11-44-48-44-77 0-10 9-30 21-45l20-26h1014c950 0 1014 1 1034 18 34 28 37 73 8 108l-25 29-1004 2c-679 1-1010-2-1024-9z"/><path d="m955 2135c-16-15-25-36-25-55s9-40 25-55l24-25h1008c1100 0 1043-3 1057 56 9 36-9 79-40 93-18 8-303 11-1025 11h-1000z"/></g></svg>